<svg id="Ebene_1" data-name="Ebene 1" xmlns="http://www.w3.org/2000/svg" xmlns:xlink="http://www.w3.org/1999/xlink" viewBox="0 0 128 60"><defs><style>.cls-1{fill:none;}.cls-2{clip-path:url(#clip-path);}.cls-3{fill-rule:evenodd;}.cls-4{fill:#fff;}</style><clipPath id="clip-path"><rect class="cls-1" x="33.01" y="4.93" width="61.97" height="50.15"/></clipPath></defs><g id="layer1"><g id="g116"><g class="cls-2"><g id="g118"><g id="g124"><path id="path126" d="M50.39,51.53a4.88,4.88,0,0,1-.94-1.86,6,6,0,0,1-.21-1.61A6.1,6.1,0,0,1,49.6,46c.77-2,2.69-3.24,5.27-3.24s4.5,1.2,5.26,3.24a5.87,5.87,0,0,1,.36,2.11,6.4,6.4,0,0,1-.2,1.61,4.88,4.88,0,0,1-.94,1.86,5.63,5.63,0,0,1-4.48,1.86,5.61,5.61,0,0,1-4.48-1.86m3.6,0h0m-.87-1.86A3.23,3.23,0,0,0,54,51.53a1.32,1.32,0,0,0,.88.33,1.38,1.38,0,0,0,.89-.33,3.19,3.19,0,0,0,.93-1.86,8.54,8.54,0,0,0,.14-1.61A7.22,7.22,0,0,0,56.56,46c-.33-1.05-.93-1.55-1.66-1.55s-1.32.5-1.64,1.55A7.22,7.22,0,0,0,53,48.06a9.45,9.45,0,0,0,.13,1.61"/></g><g id="g128"><path id="path130" d="M84.52,49.67v2.15h1.86a3.52,3.52,0,0,0,1.67-.29A2.12,2.12,0,0,0,89,49.67a5.41,5.41,0,0,0,0-.59v-.35h1.82v4.62H80.11v-1.5l1,0c.28,0,.38-.1.43-.21l0-.08a1.33,1.33,0,0,0,.06-.45V44.53c0-.06-.16-.26-.52-.26H80V47H78.37l-.05-.29a3.34,3.34,0,0,0-.17-.74c-.34-.93-1.14-1.51-3.08-1.51a2.67,2.67,0,0,0-1.1.19.66.66,0,0,0-.42.65.84.84,0,0,0,.31.67,2.06,2.06,0,0,0,.58.33,7.29,7.29,0,0,0,1.08.31l1.3.28c1.59.35,3.5.89,3.78,2.8a4,4,0,0,1,0,.5,2.47,2.47,0,0,1-.5,1.65c-1,1.27-2.95,1.53-4.4,1.53a6,6,0,0,1-3-.73l-.34.6H70.71V49.15h1.73l0,.3a1.7,1.7,0,0,0,0,.22,2.62,2.62,0,0,0,1.66,1.86,3.53,3.53,0,0,0,1.29.24,4.55,4.55,0,0,0,1.74-.24c.44-.18.56-.44.56-.71s-.24-.6-.91-.84a8.56,8.56,0,0,0-1.07-.31l-1.39-.31c-1.76-.43-3.88-1.12-3.89-3.41a2.66,2.66,0,0,1,.56-1.63l-.48.06a.61.61,0,0,0-.25.1.64.64,0,0,0,0,.2v5a3.93,3.93,0,0,1-.44,1.86c-.68,1.22-2.12,1.83-4.23,1.83S61.81,52.9,61,51.53a3.49,3.49,0,0,1-.43-1.79V44.68a.46.46,0,0,0-.38-.41h-1.1v-1.6h6.5v1.6h-.84a.47.47,0,0,0-.39.41v5.38a1.46,1.46,0,0,0,1.47,1.47h.24c1.33,0,1.48-.25,1.5-1.86v-5a.47.47,0,0,0-.39-.41H66v-1.6h6l.62.49A5.89,5.89,0,0,1,75,42.67a7.68,7.68,0,0,1,3.15.87l.4-.84,12.26,0v4.51H89v-.34c0-.34,0-.63,0-.89-.09-1.28-.57-1.68-2.95-1.68H84.52v2.6l.64,0c.6-.12.7-.16.7-.89v-.73h1.78v5.29H85.86v-.84a2.16,2.16,0,0,0-.09-.6c-.07-.19-.15-.28-.26-.32s-.65-.09-1-.12Z"/></g><g id="g132"><path id="path134" d="M46.08,46V44.78c0-.23-.19-.51-.41-.51H44.46v-1.6h6.2v1.6H49.45c-.27,0-.44.3-.44.66V51.2a.72.72,0,0,0,.07.33.47.47,0,0,0,.44.29h1.12v1.53H44.47V51.82h1.06a.5.5,0,0,0,.5-.29.76.76,0,0,0,0-.27V49l-.15-.15a.51.51,0,0,0-.36-.2H42.9a.64.64,0,0,0-.46.2.81.81,0,0,0-.13.15v2.26a.94.94,0,0,0,.05.3.41.41,0,0,0,.36.29h1.12v1.53H37.67V51.82H38.8a.6.6,0,0,0,.42-.29.71.71,0,0,0,.12-.38V44.73a.47.47,0,0,0-.45-.46H37.67v-1.6h6.17v1.6H42.71c-.29,0-.41.18-.41.7v1.48a.66.66,0,0,0,0,.11.51.51,0,0,0,.19.2l3.22.05a1,1,0,0,0,.17-.14.52.52,0,0,0,.16-.27Z"/></g><g id="g136"><path id="path138" class="cls-3" d="M68.21,36.33a5.1,5.1,0,0,1,5.2-5.39,5.54,5.54,0,0,1,2.69.77l.6-.77h7.5v1.64H83.13a.55.55,0,0,0-.46.45v2.7l1.66-1.48,1.26-1.1c.18-.16.33-.29.43-.4s0-.09,0-.11a1.77,1.77,0,0,0-.49-.06h-.81V30.94h5.86v1.64h-.34c-.92,0-1.12.06-1.47.34l-2.54,2.16L89,39.16c.43.71.85.85,1.06.85h.83v1.71H84.68V40h.77c.14,0,.39,0,.61,0l.17,0a1.36,1.36,0,0,0-.1-.24,4.06,4.06,0,0,0-.28-.43l-1.59-2.56-1.59,1.36v1.58c0,.15.12.3.37.3h1.15v1.71h-6V40h1.27a.31.31,0,0,0,.35-.3V33a.61.61,0,0,0-.5-.45h-.83v2.81H76.57v-.34a2.56,2.56,0,0,0-2.48-2.44c-1.82,0-2.68,1.25-2.68,3.72,0,2.23.59,3.75,2.78,3.75a2.44,2.44,0,0,0,2.36-2.45v-.35h1.58v.35c0,2.85-1.71,4.11-4.5,4.11-3.13,0-5.42-1.86-5.42-5.41"/></g><g id="g140"><path id="path142" class="cls-3" d="M46.38,35.89a2.65,2.65,0,0,1,2.19,2.76A3.4,3.4,0,0,1,48.34,40H49c.22,0,.48-.23.48-.35V33c0-.17-.32-.45-.48-.45H47.92a3.06,3.06,0,0,1,.17,1.08,2.11,2.11,0,0,1-1.71,2.23m13.88.33c0,2.55.76,3.86,1.83,3.86S64,38.76,64,36.22s-.79-3.64-1.88-3.64-1.85,1.12-1.85,3.64m-18.16.65v3.22h.67c.26,0,.58,0,.92,0a3.48,3.48,0,0,0,.93-.17,1.29,1.29,0,0,0,.93-1.37,1.38,1.38,0,0,0-.93-1.5,3.42,3.42,0,0,0-.93-.15c-.33,0-.66,0-.92,0Zm0-4.29,0,2.61h1a3.36,3.36,0,0,0,1.37-.2c.31-.15.55-.43.55-1.09,0-1-.89-1.32-1.92-1.32Zm25.35,2a6.35,6.35,0,0,1,.23,1.73c0,3.3-2.27,5.39-5.6,5.39a5.16,5.16,0,0,1-5-2.94c0,.92,0,2.94,0,2.94H47.78V40.8a5.38,5.38,0,0,1-3.63.93H37.69V40h1.14c.31,0,.46-.11.46-.35V33a.66.66,0,0,0-.54-.45H37.67V30.94h6.87c1.73,0,2.77.46,3.24,1.33V30.94h6.44v1.64H53c-.16,0-.47.28-.47.45v7h.52a2.11,2.11,0,0,0,1.33-.33c.42-.32.84-1,.84-2.6v-.34h1.35c0-.13,0-.26,0-.39a6.77,6.77,0,0,1,.22-1.73,5.15,5.15,0,0,1,5.33-3.67,5.14,5.14,0,0,1,5.32,3.67"/></g><g id="g144"><path id="path146" class="cls-3" d="M41.71,36.7v3.59a.19.19,0,0,0,.21.19h.85c.27,0,.6,0,.94,0a3.69,3.69,0,0,0,1-.2,1.66,1.66,0,0,0,1.19-1.73,1.75,1.75,0,0,0-1.19-1.86,3.66,3.66,0,0,0-1-.18c-.34,0-.67,0-.94,0h-.84l-.09,0a.21.21,0,0,0-.11.12.31.31,0,0,0,0,.08m0-4.29v3a.47.47,0,0,0,0,.09.2.2,0,0,0,.11.11l.08,0h1.22c1,0,2.31-.09,2.31-1.68,0-1.35-1.28-1.71-2.31-1.71H42a.47.47,0,0,0-.22.08.23.23,0,0,0,0,.14m-2,.62a1,1,0,0,0-.93-.84h-.69v-.86h6.48c2.37,0,3.16.86,3.16,2.33,0,1.31-.72,1.71-1.94,2l-.08.06a.26.26,0,0,0-.07.16.27.27,0,0,0,.07.18l0,0c1.31.4,2.46.78,2.46,2.56s-1.12,2.69-4,2.69H38.08v-1h.75c.39,0,.85-.17.85-.74Z"/></g><g id="g148"><path id="path150" class="cls-3" d="M52.61,48.06c0,2.48.75,4.19,2.26,4.19s2.35-1.71,2.35-4.19S56.4,44,54.9,44s-2.29,1.56-2.29,4.05m7.49,0c0,3-2.06,4.94-5.23,4.94s-5.24-1.89-5.24-4.94,2.06-5,5.24-5,5.23,1.9,5.23,5"/></g><g id="g152"><path id="path154" class="cls-3" d="M59.87,36.22c0,2.49.74,4.25,2.22,4.25s2.29-1.76,2.29-4.25-.79-4-2.27-4-2.24,1.54-2.24,4m7.4.12c0,3.06-2.08,5-5.21,5a4.73,4.73,0,0,1-4.83-3.15A.32.32,0,0,0,57,38a.29.29,0,0,0-.17.06l-.05.05,0,3.24H48.17v-1H49c.33,0,.87-.32.87-.74V33a1,1,0,0,0-.87-.84h-.82v-.86h5.66v.86H53a1,1,0,0,0-.86.84v7.22c0,.09.06.13.11.14h.8c.75,0,2.55,0,2.56-3.27H57v0a5.58,5.58,0,0,1,0-.72c0-3.07,2-5,5.16-5s5.16,1.94,5.16,5"/></g><g id="g156"><path id="path158" d="M76.89,31.33h6.92v.86h-.68a.93.93,0,0,0-.85.84v3.12c0,.07.1.14.17.16h.17l2-1.75c.44-.37.91-.77,1.27-1.1s.64-.58.64-.68a.48.48,0,0,0-.34-.48,2,2,0,0,0-.63-.09H85.1v-.86h5.08v.86a2.22,2.22,0,0,0-1.67.43L85.83,34.9a.41.41,0,0,0,0,.18.43.43,0,0,0,0,.05l2.83,4.24a1.76,1.76,0,0,0,1.39,1h.45v.94H85.07v-.94h.38c.14,0,.4,0,.63,0s.47-.06.53-.25a.88.88,0,0,0-.14-.58,3.79,3.79,0,0,0-.29-.46L84.42,36.3a.21.21,0,0,0-.14,0l-.06,0L82.28,38v1.76a.7.7,0,0,0,.75.68h.77v.94H78.53v-.94h.88a.69.69,0,0,0,.74-.68V33a1,1,0,0,0-.89-.84H78V35H77a3,3,0,0,0-2.87-2.79c-2.15,0-3.06,1.56-3.06,4.11,0,2.26.61,4.14,3.16,4.14a2.83,2.83,0,0,0,2.75-2.8h.8c-.06,2.57-1.51,3.69-4.11,3.69-2.94,0-5-1.72-5-5a4.71,4.71,0,0,1,4.81-5,4.82,4.82,0,0,1,2.72.89Z"/></g><g id="g160"><path id="path162" d="M85.61,48.37s-1-.14-1.31-.14c-.09,0-.17,0-.17.14v3.56c0,.19.18.28.41.28h1.84c1.54,0,3-.28,3-3.09h1.06V53h-10v-.75h.62c.86,0,.91-.76.91-1.13V44.53c0-.42-.53-.65-.91-.65H79.63v2.71H78.7c-.23-1.53-1.07-2.54-3.63-2.54-.83,0-1.91.2-1.91,1.23,0,.69.46,1.09,1.14,1.36a7.39,7.39,0,0,0,1.14.33c.41.1.86.18,1.3.28,1.78.39,3.51.94,3.51,2.92,0,2.28-2.49,2.79-4.52,2.79a5.24,5.24,0,0,1-3.11-.87l-.05,0-.43.77h-1V49.54h1a3.23,3.23,0,0,0,3.37,2.62c1.86,0,2.69-.45,2.69-1.34,0-.6-.48-1-1.17-1.21s-1.59-.41-2.5-.63c-1.82-.44-3.59-1.08-3.59-3.06a2.31,2.31,0,0,1,.65-1.56.24.24,0,0,0,0-.14.12.12,0,0,0,0,0l-.33-.26-.69.09c-.47.11-.6.29-.6.68v4.91c0,2.23-1.39,3.39-4.28,3.39C62.94,53,61,52.16,61,49.74V44.68a.84.84,0,0,0-.76-.8h-.72v-.82H65.2v.82h-.45a.86.86,0,0,0-.78.8v5.38a1.86,1.86,0,0,0,2,1.86c2,0,2-.61,2-2.83V44.68a.85.85,0,0,0-.78-.8h-.82v-.82h5.47l.58.46a.27.27,0,0,0,.19,0l.15-.05A5.61,5.61,0,0,1,75,43.06a7.35,7.35,0,0,1,3.18.94.25.25,0,0,0,.15,0l0,0,.41-.88h.64l11,0v3.73H89.4c0-2.16-.3-2.91-3.36-2.91H84.42a.28.28,0,0,0-.29.27v3a.17.17,0,0,0,.18.16l.9,0c.79-.16,1-.33,1-1.3v-.32h1v4.51h-1V49.8c0-.55-.09-1.26-.64-1.43"/></g><g id="g164"><path id="path166" d="M42.3,47.08l.15.08.09,0H45.8a1,1,0,0,0,.67-.8V44.78c0-.31-.26-.9-.8-.9h-.83v-.82h5.43v.82h-.82c-.64,0-.83.67-.83,1V51.2a1,1,0,0,0,.9,1h.74V53h-5.4v-.75h.67a.91.91,0,0,0,.94-1V49a1.09,1.09,0,0,0-.9-.74H42.9a1.05,1.05,0,0,0-1,.72v2.28c0,.37.2,1,.8,1h.73V53H38.06v-.75h.74a1.06,1.06,0,0,0,.93-1.05V44.73a.85.85,0,0,0-.84-.85h-.83v-.82h5.39v.82h-.74c-.68,0-.8.58-.8,1.09v1.54l0,.09s0,.1.06.15a1.06,1.06,0,0,0,.3.33"/></g><g id="g168"><path id="path170" class="cls-3" d="M85.76,57.26a.5.5,0,1,0-.49.5.49.49,0,0,0,.49-.5m-1,1.62.59-.79,0,0a.5.5,0,0,1-.21,0,.82.82,0,0,1-.79-.85.91.91,0,0,1,1.53-.64.89.89,0,0,1,.28.67,1,1,0,0,1-.2.6l-.66,1Z"/></g><g id="g172"><path id="path174" class="cls-3" d="M90.29,57.06a.35.35,0,0,0-.69,0,.35.35,0,0,0,.69,0m.08,1.09a.43.43,0,1,0-.41.42.42.42,0,0,0,.41-.42m.43,0a.8.8,0,0,1-.85.78.77.77,0,0,1-.83-.75.68.68,0,0,1,.41-.62l.06,0,0,0a.51.51,0,0,1-.3-.48.68.68,0,0,1,.73-.67.66.66,0,0,1,.68.63.55.55,0,0,1-.27.49l0,0,.06,0a.64.64,0,0,1,.41.61"/></g><g id="g176"><path id="path178" class="cls-3" d="M88.15,58.05a.49.49,0,0,0-.49-.5.48.48,0,0,0-.49.49.49.49,0,0,0,1,0m-.06-1.61-.55.79,0,0a.35.35,0,0,1,.2,0,.81.81,0,0,1,.77.82.89.89,0,0,1-.9.9,1,1,0,0,1-.63-.26,1,1,0,0,1-.26-.66,1,1,0,0,1,.22-.6l.66-1Z"/></g><g id="g180"><path id="path182" class="cls-3" d="M58.67,57l0-.06-.35,1H59v-.05s0,0-.3-.84M59,58.58h.29l-.17-.42h-.91l-.16.42h.28v.3h-1v-.35h.25l.75-1.74h-.29v-.35h.79l.88,2.09H60v.35H59Z"/></g><g id="g184"><path id="path186" d="M73.78,31c-.46.29-2.26.78-2.53.43a.64.64,0,0,0-.16-.11L71,31.22l-.06,0a3,3,0,0,1-.19-1.54,2.52,2.52,0,0,0-.21-.71c-.09-.23-.2-.45-.28-.68-.22-.4-.41-.81-.65-1.19a3.45,3.45,0,0,0-.92-1l-.38-.32a1.7,1.7,0,0,0-.39-.27,15.71,15.71,0,0,1-2.06,0c-.07,0-.09.05-.11.11a.19.19,0,0,0,0,.08l0,.08a5,5,0,0,0-.17,1.09,7.94,7.94,0,0,1-.15,1.09c0,.15-.07.29-.1.44a1.13,1.13,0,0,0,0,.45,2.88,2.88,0,0,1,.16.47c0,.17.09.34.13.52s.08.34.13.51a3.39,3.39,0,0,0,.17.48.78.78,0,0,1,0,.43l-.06.21a.73.73,0,0,0,0,.2.67.67,0,0,1-.23.1,1.14,1.14,0,0,1-.25.06A3.07,3.07,0,0,1,63,31v-.1a.74.74,0,0,1-.15-.5v-.28a2.44,2.44,0,0,0,0-.27,1.39,1.39,0,0,1,.2-1.11,5.23,5.23,0,0,0-.5-2.51c-.1-.22-.18-.47-.29-.7a1.51,1.51,0,0,0-.43-.6c-.59-.14-1.2-.25-1.77-.43-.06,0,0,.08,0,.14v0a.06.06,0,0,1,0,0,.16.16,0,0,1,0,.09.82.82,0,0,1-.41,0c-.13,0-.26-.09-.38-.13s-.39-.12-.6-.16a.16.16,0,0,0-.09.15.31.31,0,0,0,0,.1s0,.06,0,.1c0,.87.15,1.79.1,2.69a1.34,1.34,0,0,0,.29.76c.16.23.36.44.54.66a3.25,3.25,0,0,1,.7,1c.19.38.34.78.5,1.12a5.33,5.33,0,0,1-2.14,1.16l-.18,0h-.16a.41.41,0,0,1-.19,0l-.28-.27a4.73,4.73,0,0,1-.43-.93c-.13-.34-.23-.69-.32-1a1.07,1.07,0,0,0-.24-.53c-.12-.15-.27-.3-.39-.47-.19-.37-.33-.76-.49-1.14a4.17,4.17,0,0,0-.61-1.09,8.36,8.36,0,0,0-1.1-1.05.24.24,0,0,1-.08-.06L54,25.61a.21.21,0,0,0-.15-.11,1.26,1.26,0,0,1-.26.21l-.28.16a.61.61,0,0,0-.35.49c0,.53-.08,1.07-.1,1.61A6.24,6.24,0,0,0,53,29.58c.16.23.33.43.46.64a1.24,1.24,0,0,1,.2.72,6.44,6.44,0,0,1-2.9,0,2.14,2.14,0,0,1-.07-.49c0-.16,0-.32,0-.48a1.26,1.26,0,0,0-.31-.87c-.11-.57-.23-1.15-.29-1.74a.54.54,0,0,0-.15.15l-.11.19a.5.5,0,0,1-.32.3.21.21,0,0,0-.12,0l0,0-.05.05a.25.25,0,0,1-.23.1l-.08-1.51a1.4,1.4,0,0,0-.09-.29.63.63,0,0,0-.16-.26,1.94,1.94,0,0,1-.41-1.35c0-.2-.08-.42-.1-.64a.71.71,0,0,1,.15-.61,4.21,4.21,0,0,1,.28-.45l.33-.43a4.11,4.11,0,0,0,.55-.89c0-.5-.08-.92-.07-1.42,0-.75,0-1.46-.07-2.18,0-.46-.06-.9-.08-1.33a6.08,6.08,0,0,1,.06-1.34,6.5,6.5,0,0,1,1.23-3A8.89,8.89,0,0,1,54.7,10a13.54,13.54,0,0,1,3.69-.53c.64,0,1.28-.07,1.9-.14A10,10,0,0,0,62.12,9a21.14,21.14,0,0,1,2.09-.49,11.68,11.68,0,0,0,2.49-.8c.54-.29,1.07-.63,1.63-.9a4.4,4.4,0,0,1,1.8-.5A3.91,3.91,0,0,0,71.5,5.9l.64-.28a3.79,3.79,0,0,1,.68-.19,2.46,2.46,0,0,1,1.4-.29l.75,0a3.7,3.7,0,0,0,.75,0,3,3,0,0,1,1.16.24c.59.22,1.18.45,1.75.72.3.07.62.08.93.14a1.4,1.4,0,0,1,.83.39,9.91,9.91,0,0,1,.88.83c.28.29.56.58.86.86a1,1,0,0,1,.3.6c0,.23,0,.47,0,.68a1.07,1.07,0,0,1-.19.56c-.1.17-.23.32-.33.49a3.55,3.55,0,0,0-.43.23l-.42.27a1.29,1.29,0,0,1-1,.21.19.19,0,0,1-.06-.21,1.29,1.29,0,0,1,.07-.21l.13-.31a2.08,2.08,0,0,0,.12-.32.57.57,0,0,0-.16-.62.52.52,0,0,1-.1-.11.44.44,0,0,0-.08-.11.2.2,0,0,0-.24-.08,1.21,1.21,0,0,1-.56.34,1.62,1.62,0,0,0-.32.69,2.22,2.22,0,0,0,.35.82c.16.26.35.5.51.76a.9.9,0,0,1,.11.84,1.15,1.15,0,0,1-.12.25l-.15.24a.78.78,0,0,0-.15.52,1,1,0,0,1-.43.35l-.5.22a2.24,2.24,0,0,0-.82,1,6.28,6.28,0,0,1-.31.57,2.13,2.13,0,0,1-.43.52,8.22,8.22,0,0,1-.93,1c-.25.19-.52.35-.78.51a4.5,4.5,0,0,0-.74.56,1.71,1.71,0,0,0-.27.56c-.06.2-.1.41-.17.61a6.58,6.58,0,0,1-.17,1,5.68,5.68,0,0,0-.17,1c-.05.28-.1.58-.17.86a3.28,3.28,0,0,1-.3.81c-.13.32-.29.62-.41.94a2.11,2.11,0,0,0-.15,1,5,5,0,0,1-.05.77,3.21,3.21,0,0,0,0,.76c.11.43.14.89.24,1.32a2.09,2.09,0,0,0,.59,1.16,1.19,1.19,0,0,1,.3.59c0,.11,0,.22.08.33a2.65,2.65,0,0,0,.11.3.16.16,0,0,1-.06.2l-.09.05,0,0Z"/></g><g id="g188"><path id="path190" class="cls-4" d="M52.55,30.53c0-.07-.1-.07-.16-.1l-.53.16c-.06,0-.15-.06-.19,0a.32.32,0,0,0,.15.26c.23,0,.54.12.72-.07a.36.36,0,0,0,0-.29"/></g><g id="g192"><path id="path194" class="cls-4" d="M64.56,30.25c-.1,0-.2.06-.3,0a4.31,4.31,0,0,0-.76.27c0,.07,0,.15.06.18a2.9,2.9,0,0,1,1.1.19c.09,0,.19.09.26,0,0-.29-.23-.46-.36-.7"/></g><g id="g196"><path id="path198" class="cls-4" d="M72.84,30.51c-.07-.21,0-.52-.29-.62l-.62.21a.84.84,0,0,1-.2.08c-.11.06-.26.09-.26.24s0,.2.1.24c.4.06.78-.15,1.2-.1Z"/></g><g id="g200"><path id="path202" class="cls-4" d="M58.6,30.61c-.24-.28-.4-.73-.84-.73-.07.06-.16,0-.22.07a3.92,3.92,0,0,0,.6,1.37c.31.08.55-.11.8-.22,0-.22-.25-.29-.34-.49"/></g><g id="g204"><path id="path206" class="cls-4" d="M63.72,28.78c-.06-.06-.13,0-.18,0-.08.22-.2.41-.28.62a1.41,1.41,0,0,0,.08.59c.22,0,.54.05.68-.16a9.55,9.55,0,0,1-.3-1.08"/></g><g id="g208"><path id="path210" class="cls-4" d="M51.58,27.08a.17.17,0,0,0-.19-.09c-.2.23-.49.46-.52.78s.05.79.11,1.17a6.47,6.47,0,0,0,.25,1.16c.09.07.21,0,.31,0s.33,0,.36-.2a6.64,6.64,0,0,0-.59-1.76c-.11-.4.23-.69.27-1.07"/></g><g id="g212"><path id="path214" class="cls-4" d="M49.1,23.36c0-.07-.13-.11-.18,0a.83.83,0,0,0-.09.52A1.13,1.13,0,0,0,49.1,25c.08.08,0,.24.19.26s.08-.07.09-.12c-.17-.55-.13-1.19-.28-1.75"/></g><g id="g216"><path id="path218" class="cls-4" d="M69,23.72c-.22-.19-.28-.48-.55-.63s-.36-.16-.52-.05a.36.36,0,0,0-.21.36.26.26,0,0,0,.17.21,1.72,1.72,0,0,1,1.25.49c.46.3.76,1,1.41.88.08-.06.19-.12.19-.24a.34.34,0,0,0-.15-.35A2,2,0,0,1,69,23.72"/></g><g id="g220"><path id="path222" class="cls-4" d="M55.19,23.15c-.12,0-.09-.15-.18-.21s-.21.14-.3.25c-.3.72-1.05,1.14-1.42,1.83,0,.09-.11.16,0,.25s.07,0,.11,0c.24-.49.77-.74,1-1.22a2,2,0,0,1,1.47-.6,6.65,6.65,0,0,1,2.31.57l.09-.05a.11.11,0,0,0,0-.14,3.37,3.37,0,0,1-1-.44,3.67,3.67,0,0,0-2-.24"/></g><g id="g224"><path id="path226" class="cls-4" d="M49.85,22.86c0-.08-.08-.26-.19-.15l-.16.45c-.15.51.21.89.26,1.36,0,.05.11,0,.14,0,0-.51.24-.9.21-1.4,0-.15-.18-.14-.26-.23"/></g><g id="g228"><path id="path230" class="cls-4" d="M50.05,19.73c0-.1,0-.24-.15-.26s0,.18,0,.28c-.13.38,0,.76,0,1.14l.06.08s.09,0,.11,0a6.11,6.11,0,0,0,0-1.21"/></g><g id="g232"><path id="path234" class="cls-4" d="M69,17c0-.11,0-.25-.05-.35s-.13,0-.18.06a1.63,1.63,0,0,0,.2,1c.13.51-.31.8-.38,1.24,0,.1,0,.27.15.3.24-.14.58-.25.66-.56s-.14-.27-.16-.43l0-.37c.08-.36-.26-.56-.28-.88"/></g><g id="g236"><path id="path238" class="cls-4" d="M72.45,14.85c0-.09-.09-.11-.16-.11s-.09.25-.14.38c.13.64-.18,1.43.23,2,.25.33.7.36.91.75.16.13.26-.07.37-.14a.72.72,0,0,0-.12-.72,2.44,2.44,0,0,1-1-.83,2.53,2.53,0,0,1-.14-1.31"/></g><g id="g240"><path id="path242" class="cls-4" d="M70.13,9.76c-.15-.09-.22-.27-.42-.21s-.06.24-.11.36,0,.52.14.71a1.52,1.52,0,0,0,.74.28c.32-.07.7,0,.91-.3,0,0,0-.14-.06-.19a7.35,7.35,0,0,1-1.2-.65"/></g><g id="g244"><path id="path246" class="cls-4" d="M71.42,7l-.08-.09A3.92,3.92,0,0,0,70.11,7a4.14,4.14,0,0,0-1.06.36c-.18.05-.32.18-.51.22a8.7,8.7,0,0,0-1.36.76c-.13.21-.21.44-.33.64A1.28,1.28,0,0,0,67,10.31a1.24,1.24,0,0,0,.94.49.08.08,0,0,0,0-.07,2.48,2.48,0,0,1-.24-1c0-.44.51-.6.83-.79s.81-.74,1.26-1.05a6.61,6.61,0,0,1,.9-.24c.24-.18.75-.24.67-.65"/></g><g id="g248"><path id="path250" class="cls-4" d="M79.36,6.8c-.26-.13-.61,0-.88-.15a.32.32,0,0,0-.06.51,6.85,6.85,0,0,1,1.57.9,3.12,3.12,0,0,1,1,1.72c0,.21-.09.41,0,.58a.18.18,0,0,0,.2,0,1.89,1.89,0,0,0,.52-1.54c-.36-.37-.77-.72-1.14-1.11s-.71-.87-1.27-.9"/></g><g id="g252"><path id="path254" class="cls-1" d="M79.36,6.8c-.26-.13-.61,0-.88-.15a.32.32,0,0,0-.06.51,6.85,6.85,0,0,1,1.57.9,3.12,3.12,0,0,1,1,1.72c0,.21-.09.41,0,.58a.18.18,0,0,0,.2,0,1.89,1.89,0,0,0,.52-1.54c-.36-.37-.77-.72-1.14-1.11S79.92,6.83,79.36,6.8Z"/></g><g id="g256"><path id="path258" class="cls-4" d="M76.56,6c-.41-.07-.83-.1-1.25-.15a11.09,11.09,0,0,0-1.63,0,4,4,0,0,0-1.4.88c-.09.45.48.17.62.44s-.12.49-.07.75a1.4,1.4,0,0,0,.44.78,1.27,1.27,0,0,0,.48-.05V8.24c-.09-.14-.28-.09-.39-.21a.14.14,0,0,1,0-.16l.54-.16c.14,0,.32-.1.42,0,.12.43.6.61.91.9.15.14.41.28.34.53s-.25.13-.39.12a6.21,6.21,0,0,0-.88-.47,2,2,0,0,0-1,.35c-.07.15.07.25.15.35s.32-.18.49-.22a.51.51,0,0,1,.46.15c.1.11.37.17.28.38a3.29,3.29,0,0,1-.44.68.49.49,0,0,1-.51-.13s-.11,0-.14,0a1.49,1.49,0,0,0,.43.7c.11.13.21.27.4.24s.29-.21.4-.33.14-.36.28-.49.18,0,.27.07.27.11.19.27A5.3,5.3,0,0,1,74.26,12a1.92,1.92,0,0,0-.05,1.06,1.34,1.34,0,0,0,.77.47c.1.07.28,0,.33.17a2.48,2.48,0,0,0,.83,1.08c.14.06.22-.1.31-.17.06-.22-.23-.29-.35-.42s-.27-.06-.36-.19-.19-.31-.06-.46a.58.58,0,0,1,.41,0c.24.09.23.37.36.55s.25.31.47.25c.4-.15.75.08,1.14.07a.38.38,0,0,0,.15-.38,1.55,1.55,0,0,0-.69-1c-.32,0-.53-.24-.84-.23-.11,0-.1-.17-.12-.26a.43.43,0,0,1,.25-.19,2.64,2.64,0,0,1,1,0c.25,0,.54,0,.72.22a1.22,1.22,0,0,1-.08.5.58.58,0,0,0,.12.65.27.27,0,0,0,.26-.07.28.28,0,0,0,.06-.25c-.19-.46.37-.57.62-.78a.71.71,0,0,0-.12-.45c-.52-.83-.89-1.72-1.41-2.55a5.62,5.62,0,0,1,0-.92c0-.45-.53-.56-.84-.72a1.32,1.32,0,0,0-.74.16C76.16,8.19,76,8,75.79,8a.18.18,0,0,1-.16-.2c.14-.14.35,0,.52,0a2,2,0,0,0,.95-.13c.29,0,.56.14.85.18s.32.51.47.78,0,.68.38.61a2.23,2.23,0,0,0,.13-.46,1.54,1.54,0,0,0,0-.64c-.34-.22-.5-.69-.93-.74-.72-.08-1.4-.24-2.13-.34-.2-.07-.12-.31-.14-.48s.15-.12.22-.18c.3-.21.37.23.58.31a.38.38,0,0,0,.34-.06A.83.83,0,0,0,76.56,6"/></g><g id="g260"><path id="path262" class="cls-3" d="M74.41,28.35V28h.35a.17.17,0,0,1,.19.18c0,.16-.11.19-.25.19Zm-.15.58h.15v-.46h.34c.14,0,.17.09.18.19s0,.23,0,.27h.16c-.06-.07,0-.19-.06-.3a.21.21,0,0,0-.16-.22.25.25,0,0,0,.18-.27c0-.17-.12-.28-.32-.28h-.51Zm.39-1.51a1,1,0,1,1-1,1,1,1,0,0,1,1-1m0,.15a.84.84,0,1,0,.84.83.84.84,0,0,0-.84-.83"/></g><g id="g264"><path id="path266" class="cls-3" d="M38.49,58.52H39l.18-.06a.35.35,0,0,0,.15-.29.39.39,0,0,0-.15-.31.36.36,0,0,0-.17-.07h-.48Zm0-1.09h.44a.58.58,0,0,0,.17-.06.34.34,0,0,0,.12-.26.32.32,0,0,0-.14-.27.49.49,0,0,0-.16-.05h-.43Zm-.69,1.1h.27V56.79H37.8v-.35h1.08a.85.85,0,0,1,.5.12.59.59,0,0,1,.22.48.55.55,0,0,1-.31.51l0,0,0,0a.65.65,0,0,1,.42.62.7.7,0,0,1-.22.51.79.79,0,0,1-.56.16H37.8Z"/></g><g id="g268"><path id="path270" d="M40.47,58.53h.27V56.79h-.27v-.35h1.79v.7h-.42v-.33h-.68v.68h.73v.31h-.73v.72h.68v-.34h.42v.7H40.47Z"/></g><g id="g272"><path id="path274" d="M43.46,58.19a.38.38,0,0,0,.39.38.36.36,0,0,0,.39-.37.3.3,0,0,0-.15-.27L44,57.86l-.15,0a1.22,1.22,0,0,1-.48-.21.61.61,0,0,1-.26-.52.71.71,0,0,1,.73-.69.51.51,0,0,1,.42.18l0,.06v-.19h.32v.62h-.38a.36.36,0,0,0-.71,0,.32.32,0,0,0,.14.27.59.59,0,0,0,.14.06l.14.05a1.39,1.39,0,0,1,.53.22.64.64,0,0,1,.24.5.74.74,0,0,1-.77.76.55.55,0,0,1-.45-.21l-.05,0v.21h-.32v-.69Z"/></g><g id="g276"><path id="path278" d="M46.61,58.53h.28v.35h-1v-.35h.27V56.81h-.42v.36h-.32v-.73h1.91v.73H47v-.36h-.42Z"/></g><g id="g280"><path id="path282" d="M50.14,58.19a.38.38,0,0,0,.39.38.36.36,0,0,0,.39-.37.3.3,0,0,0-.15-.27l-.14-.07-.15,0A1.22,1.22,0,0,1,50,57.6a.61.61,0,0,1-.26-.52.7.7,0,0,1,.72-.69.52.52,0,0,1,.43.18l0,.06v-.19h.32v.62h-.38a.35.35,0,0,0-.35-.33.34.34,0,0,0-.36.34.32.32,0,0,0,.14.27.59.59,0,0,0,.14.06l.14.05a1.39,1.39,0,0,1,.53.22.64.64,0,0,1,.24.5.74.74,0,0,1-.77.76.55.55,0,0,1-.45-.21l-.05,0v.21h-.33v-.69Z"/></g><g id="g284"><path id="path286" d="M53.29,58.53h.27v.35h-1v-.35h.27V56.81h-.42v.36h-.32v-.73H54v.73h-.33v-.36h-.42Z"/></g><g id="g288"><path id="path290" d="M54.8,58.53h.27V56.79H54.8v-.35h1.8v.7h-.43v-.33H55.5v.68h.72v.31H55.5v.72h.67v-.34h.43v.7H54.8Z"/></g><g id="g292"><path id="path294" d="M63,58.88H62v-.35h.28l-.9-.85v.85h.27v.35h-1v-.35H61V56.79H60.7v-.35h1v.35h-.27v.81l.86-.81H62v-.35h1v.35h-.19l-.92.84,1,.9H63Z"/></g><g id="g296"><path id="path298" d="M64.18,58.19a.38.38,0,0,0,.39.38A.36.36,0,0,0,65,58.2a.3.3,0,0,0-.15-.27l-.14-.07-.15,0A1.22,1.22,0,0,1,64,57.6a.61.61,0,0,1-.26-.52.7.7,0,0,1,.72-.69.52.52,0,0,1,.43.18l0,.06v-.19h.31v.62h-.37a.35.35,0,0,0-.35-.33.34.34,0,0,0-.36.34.3.3,0,0,0,.14.27.59.59,0,0,0,.14.06l.14.05a1.46,1.46,0,0,1,.53.22.64.64,0,0,1,.24.5.74.74,0,0,1-.77.76.59.59,0,0,1-.46-.21l0,0v.21h-.33v-.69Z"/></g><g id="g300"><path id="path302" d="M68.19,58.19a.38.38,0,0,0,.39.38A.36.36,0,0,0,69,58.2a.3.3,0,0,0-.15-.27.61.61,0,0,0-.14-.07l-.15,0a1.22,1.22,0,0,1-.48-.21.61.61,0,0,1-.26-.52.7.7,0,0,1,.72-.69.52.52,0,0,1,.43.18l0,.06v-.19h.31v.62h-.37a.35.35,0,0,0-.35-.33.34.34,0,0,0-.36.34.32.32,0,0,0,.14.27.59.59,0,0,0,.14.06l.14.05a1.39,1.39,0,0,1,.53.22.64.64,0,0,1,.24.5.74.74,0,0,1-.77.76.55.55,0,0,1-.45-.21l-.05,0v.21H67.8v-.69Z"/></g><g id="g304"><path id="path306" d="M70.88,58.53h.27v.35h-1v-.35h.27V56.79h-.27v-.35h1v.35h-.27Z"/></g><g id="g308"><path id="path310" d="M74.25,58.88h-.4l-1.21-1.69v1.34h.27v.35h-1v-.35h.27V56.79h-.27v-.35h.66l1.23,1.72V56.79h-.27v-.35h1v.35h-.27Z"/></g><g id="g312"><path id="path314" d="M77.06,57.17a.85.85,0,0,0-.7-.38.83.83,0,0,0-.84.85.85.85,0,0,0,.84.85.86.86,0,0,0,.71-.38h.46a1.27,1.27,0,0,1-1.17.82,1.33,1.33,0,0,1-.9-.38,1.29,1.29,0,0,1-.37-.91,1.27,1.27,0,0,1,1.25-1.27,1,1,0,0,1,.75.3l0,0v-.29h.34v.74Z"/></g><g id="g316"><path id="path318" d="M78.33,58.53h.27V56.79h-.27v-.35h1.79v.7H79.7v-.33H79v.68h.73v.31H79v.72h.68v-.34h.42v.7H78.33Z"/></g><g id="g320"><path id="path322" d="M83.43,58.53h.3v.35h-1v-.35H83V56.79h-.37v-.35h.77Z"/></g></g></g></g></g></svg>