<?xml version="1.0" encoding="UTF-8" standalone="no"?>
<svg width="100%" height="100%" viewBox="0 0 128 60" xmlns="http://www.w3.org/2000/svg" xml:space="preserve" style="fill-rule:evenodd;clip-rule:evenodd;stroke-linejoin:round;stroke-miterlimit:2;">
    <g>
        <path d="M6.89,30.33L6.89,32C6.89,32.43 6.83,33.09 7.37,33.27L5.25,33.27C5.86,33.15 5.74,32.43 5.74,32L5.74,28.45C5.74,28.03 5.8,27.36 5.25,27.18L7.37,27.18C6.83,27.36 6.89,28.03 6.89,28.51L6.89,29.67L11,29.67L11,28.51C11,28.09 11.06,27.36 10.52,27.18L12.64,27.18C12.09,27.36 12.15,28.03 12.15,28.45L12.15,32C12.15,32.43 12.09,33.09 12.64,33.27L10.47,33.27C11.01,33.09 10.95,32.43 10.95,32L10.95,30.3L6.89,30.33ZM15.38,32.58L16.77,32.7C17.501,32.775 18.234,32.579 18.83,32.15L18.89,32.15L18.41,33.36L13.74,33.36C14.29,33.18 14.23,32.52 14.23,32.09L14.23,28.51C14.23,28.09 14.29,27.36 13.74,27.18L17.32,27.18C17.502,27.19 17.685,27.17 17.86,27.12L17.92,27.12L17.92,28.21L17.86,28.21C17.49,27.903 17.004,27.772 16.53,27.85C16.146,27.84 15.761,27.86 15.38,27.91L15.38,29.67L16.71,29.67C16.876,29.684 17.042,29.663 17.2,29.61L17.26,29.61L17.26,30.61C17.08,30.3 16.59,30.36 16.26,30.36L15.41,30.36L15.41,32.55L15.38,32.58ZM20.89,32.15C20.89,32.7 20.89,33.06 21.5,33.36L19.5,33.36C20.11,33.06 20.11,32.7 20.11,32.15L20.11,28.39C20.11,27.85 20.11,27.48 19.5,27.18L21.14,27.18C21.2,27.3 21.2,27.36 21.32,27.42L21.5,27.61L25.62,32L25.62,28.39C25.62,27.85 25.62,27.48 25.02,27.18L27,27.18C26.39,27.48 26.39,27.85 26.39,28.39L26.39,33.73C25.742,33.549 25.168,33.168 24.75,32.64L20.93,28.45L20.89,32.15ZM28.23,28.45C28.23,28.03 28.29,27.36 27.75,27.18L29.87,27.18C29.32,27.36 29.38,28.03 29.38,28.45L29.38,32C29.38,32.43 29.32,33.15 29.87,33.33L27.75,33.33C28.29,33.15 28.23,32.43 28.23,32L28.23,28.45ZM31.02,28.45C31.38,28.03 32.02,27.45 31.32,27.12L33.32,27.12L30.78,29.91L33,32.39C33.38,32.777 33.832,33.086 34.33,33.3L33.33,33.3C32.868,33.33 32.413,33.18 32.06,32.88L29.56,30L31.02,28.45ZM36.54,32.58L37.93,32.7C38.664,32.778 39.401,32.582 40,32.15L40.06,32.15L39.58,33.36L34.84,33.36C35.38,33.18 35.32,32.52 35.32,32.09L35.32,28.51C35.32,28.09 35.38,27.36 34.84,27.18L38.42,27.18C38.602,27.19 38.785,27.17 38.96,27.12L39,27.12L39,28.21C38.629,27.906 38.144,27.774 37.67,27.85C37.286,27.84 36.901,27.86 36.52,27.91L36.52,29.67L37.85,29.67C38.012,29.684 38.176,29.663 38.33,29.61L38.4,29.61L38.4,30.61L38.33,30.61C38.15,30.3 37.67,30.36 37.33,30.36L36.49,30.36L36.49,32.55L36.54,32.58ZM44.05,32.7C44.769,32.754 45.483,32.537 46.05,32.09L46.12,32.09L45.51,33.36L40.9,33.36C41.45,33.18 41.39,32.52 41.39,32.09L41.39,28.51C41.39,28.09 41.45,27.36 40.9,27.18L43,27.18C42.46,27.36 42.52,28.09 42.52,28.51L42.52,32.64L44.05,32.7ZM50.05,32.7C50.769,32.751 51.482,32.534 52.05,32.09L52.11,32.09L51.5,33.36L46.84,33.36C47.39,33.18 47.33,32.52 47.33,32.09L47.33,28.51C47.33,28.09 47.39,27.36 46.84,27.18L49,27.18C48.46,27.36 48.52,28.09 48.52,28.51L48.52,32.64L50.05,32.7ZM74.6,30.88C74.743,30.875 74.884,30.917 75,31C75.221,31.163 75.425,31.347 75.61,31.55C75.745,31.677 75.865,31.818 75.97,31.97C76.056,32.104 76.16,32.225 76.28,32.33C76.636,32.791 77.119,33.139 77.67,33.33C77.991,33.441 78.331,33.485 78.67,33.46L79.34,33.46L79.34,33.39L79.22,33.39C79.136,33.406 79.049,33.37 79,33.3C78.831,33.29 78.665,33.249 78.51,33.18C78.097,33.006 77.748,32.709 77.51,32.33C77.253,31.886 76.914,31.496 76.51,31.18C76.45,31.18 76.45,31.12 76.45,31.06C76.455,30.996 76.506,30.945 76.57,30.94C76.63,30.94 76.75,30.88 76.81,30.88L76.87,30.88C77.205,30.817 77.518,30.669 77.78,30.45C78.027,30.266 78.217,30.016 78.33,29.73C78.424,29.457 78.465,29.168 78.45,28.88C78.465,28.43 78.26,28 77.9,27.73C77.492,27.396 76.977,27.222 76.45,27.24L72.91,27.24L72.91,27.3C73.109,27.41 73.229,27.623 73.22,27.85L73.22,32.76C73.23,32.985 73.109,33.196 72.91,33.3L72.91,33.36L74.55,33.36L74.49,33.3C74.457,33.3 74.43,33.273 74.43,33.24C74.43,33.207 74.403,33.18 74.37,33.18C74.31,33.12 74.25,33.06 74.25,33L74.25,31.18C74.25,31.12 74.31,31 74.37,31L74.43,31C74.37,30.88 74.49,30.88 74.55,30.88M74.67,30.45L74.37,30.45C74.19,30.45 74.12,30.39 74.12,30.21L74.12,27.79C74.12,27.61 74.19,27.54 74.31,27.54L75.88,27.54C76.398,27.568 76.851,27.903 77.03,28.39C77.209,28.773 77.234,29.209 77.1,29.61C76.998,30.049 76.636,30.384 76.19,30.45C75.86,30.51 75.525,30.533 75.19,30.52L74.82,30.52C74.776,30.467 74.708,30.441 74.64,30.45M102.41,33.3L103.41,33.3C103.377,33.3 103.35,33.273 103.35,33.24L103.29,33.24C103.132,33.162 103.033,32.997 103.04,32.82L103.04,28.51L103.101,28.51C103.134,28.51 103.161,28.537 103.161,28.57C103.161,28.573 103.161,28.577 103.16,28.58C103.53,28.94 103.89,29.24 104.26,29.58L107.83,33.15C107.863,33.15 107.89,33.177 107.89,33.21L107.89,27.67C107.874,27.489 107.974,27.316 108.14,27.24L108.14,27.18L107.14,27.18C107.14,27.213 107.167,27.24 107.2,27.24C107.366,27.314 107.465,27.49 107.44,27.67L107.44,30.88C107.44,30.88 107.44,31 107.38,31C107.32,31 107.26,31 107.26,30.94L107,30.7L106.4,30.09L105.61,29.3C104.88,28.58 104.09,27.85 103.37,27.12C103.339,27.086 103.296,27.065 103.25,27.06L102.25,27.06C102.217,27.06 102.19,27.087 102.19,27.12C102.19,27.153 102.217,27.18 102.25,27.18C102.449,27.289 102.566,27.504 102.55,27.73L102.55,32.64C102.673,32.872 102.593,33.163 102.37,33.3M79.81,33.3L84.06,33.3C84.18,33.3 84.24,33.3 84.3,33.18C84.36,33.06 84.42,33 84.48,32.94C84.54,32.88 84.54,32.88 84.54,32.82L84.66,32.64C84.85,32.39 84.97,32.15 85.15,31.91L85.15,31.85L85.09,31.85C84.979,31.852 84.872,31.895 84.79,31.97C84.381,32.566 83.692,32.91 82.97,32.88L81.58,32.88C81.46,32.88 81.4,32.88 81.34,32.82C81.28,32.76 81.28,32.7 81.28,32.58L81.28,30.27C81.28,30.15 81.28,30.09 81.34,30.03C81.372,29.997 81.415,29.976 81.46,29.97L81.58,29.97L82.01,30.09C82.224,30.159 82.446,30.199 82.67,30.21C82.966,30.274 83.276,30.209 83.52,30.03C83.648,29.893 83.793,29.772 83.95,29.67L84.01,29.61C84.01,29.577 84.037,29.55 84.07,29.55L83.89,29.55C83.7,29.641 83.49,29.682 83.28,29.67C83.16,29.67 83.1,29.61 83.04,29.61C82.98,29.61 82.67,29.55 82.49,29.48L82.25,29.48C81.992,29.481 81.748,29.595 81.58,29.79C81.58,29.85 81.52,29.85 81.46,29.85L81.34,29.85L81.34,27.67C81.34,27.48 81.4,27.42 81.52,27.42L83.1,27.42C83.733,27.428 84.332,27.718 84.73,28.21C84.842,28.327 84.998,28.393 85.16,28.39L85.22,28.39L85.22,28.33C85.16,28.21 85.04,28.09 84.98,27.97C84.792,27.723 84.628,27.458 84.49,27.18C84.43,27.06 84.37,27.06 84.25,27.06L80,27.06L80,27.12L80.06,27.12C80.215,27.201 80.308,27.366 80.3,27.54L80.3,32.54C80.18,32.9 80.18,33.08 79.87,33.26L79.81,33.3ZM111.81,33.3L113.75,33.3C113.88,33.3 113.94,33.24 113.94,33.18L114.18,32.82C114.359,32.501 114.563,32.197 114.79,31.91L114.79,31.85L114.72,31.85C114.619,31.864 114.519,31.884 114.42,31.91L114.06,32.27C113.722,32.614 113.262,32.812 112.78,32.82L111.15,32.82C111.03,32.82 110.97,32.82 110.97,32.76C110.97,32.7 110.91,32.64 110.91,32.52L110.91,30.27C110.91,30.15 110.91,30.09 110.97,30.03C111.03,29.97 111.03,29.97 111.09,29.97L111.27,29.97C111.639,30.021 112.004,30.102 112.36,30.21C112.565,30.247 112.776,30.226 112.97,30.15C113.21,30.021 113.416,29.836 113.57,29.61C113.63,29.562 113.673,29.495 113.69,29.42C113.624,29.412 113.558,29.434 113.51,29.48C113.378,29.537 113.234,29.561 113.09,29.55L112.97,29.55C112.78,29.48 112.54,29.48 112.36,29.42C112.238,29.41 112.118,29.39 112,29.36C111.724,29.358 111.46,29.471 111.27,29.67C111.238,29.703 111.195,29.724 111.15,29.73L111.03,29.73L111.03,27.61C111.03,27.48 111.03,27.42 111.09,27.36C111.138,27.314 111.204,27.292 111.27,27.3L112.66,27.3C113.352,27.269 114.014,27.589 114.42,28.15C114.519,28.244 114.655,28.288 114.79,28.27L114.85,28.27L114.66,28.03C114.42,27.73 114.24,27.36 114,27.03C114,27 114,27 113.9,27L109.65,27L109.65,27.06C109.683,27.06 109.71,27.087 109.71,27.12C109.865,27.201 109.958,27.366 109.95,27.54L109.95,32.46C109.95,32.7 109.95,33 109.65,33.12L109.77,33.12L111.89,33.3L111.81,33.3ZM96.23,33.3C96.326,33.348 96.433,33.369 96.54,33.36L100.54,33.36C100.634,33.358 100.722,33.314 100.78,33.24C100.9,33 101.08,32.82 101.21,32.58C101.327,32.362 101.468,32.157 101.63,31.97L101.63,31.91L101.57,31.91C101.459,31.912 101.352,31.955 101.27,32.03L101.14,32.15L100.78,32.52C100.444,32.808 100.012,32.958 99.57,32.94L98,32.94C97.903,32.935 97.825,32.857 97.82,32.76L97.82,30.33C97.82,30.15 97.94,30.15 97.94,30.15L98,30.15L98.18,30.21C98.3,30.21 98.43,30.27 98.55,30.27C98.807,30.344 99.073,30.385 99.34,30.39C99.548,30.433 99.765,30.39 99.94,30.27C100.137,30.149 100.322,30.009 100.49,29.85L100.67,29.67L100.67,29.61L100.61,29.61C100.55,29.61 100.43,29.67 100.37,29.67C100.253,29.718 100.126,29.739 100,29.73C99.82,29.73 99.64,29.67 99.46,29.67L99.4,29.67C99.201,29.619 98.995,29.599 98.79,29.61C98.516,29.606 98.252,29.714 98.06,29.91L98,30L98,27.73C97.993,27.661 98.015,27.592 98.06,27.54C98.091,27.506 98.134,27.485 98.18,27.48L99.82,27.48C100.075,27.483 100.326,27.548 100.55,27.67C100.882,27.818 101.174,28.045 101.4,28.33C101.496,28.422 101.628,28.466 101.76,28.45L101.76,28.39L101.7,28.33C101.7,28.27 101.64,28.27 101.64,28.21L101.46,27.97C101.272,27.723 101.108,27.458 100.97,27.18C100.912,27.106 100.824,27.062 100.73,27.06L96.44,27.06L96.44,27.12C96.473,27.12 96.5,27.147 96.5,27.18L96.56,27.18C96.716,27.265 96.81,27.433 96.8,27.61L96.8,32.61C96.69,32.865 96.523,33.091 96.31,33.27M93.16,33.27L95.47,33.27C95.22,33.213 95.002,33.063 94.86,32.85C94.37,32.24 93.95,31.58 93.46,30.97C93.28,30.67 93.04,30.36 92.86,30.12C92.799,30.029 92.799,29.911 92.86,29.82L93.16,29.45C93.28,29.33 93.4,29.15 93.53,29.03C93.66,28.91 93.77,28.73 93.89,28.61C94.01,28.49 94.31,28.12 94.56,27.82C94.795,27.517 95.11,27.285 95.47,27.15L95.53,27.15C95.497,27.15 95.47,27.123 95.47,27.09L93.89,27.09L94.01,27.21C94.13,27.27 94.19,27.33 94.19,27.45C94.204,27.55 94.157,27.649 94.07,27.7C93.77,28.06 93.4,28.48 93.07,28.85L92.59,29.39C92.59,29.45 92.53,29.45 92.46,29.45C92.39,29.45 92.4,29.45 92.34,29.39C92.28,29.33 92.1,29.09 91.98,28.91C91.86,28.73 91.86,28.73 91.8,28.67L91.62,28.42C91.433,28.197 91.269,27.956 91.13,27.7C91.01,27.58 91.07,27.45 91.19,27.33C91.31,27.21 91.25,27.27 91.31,27.27L91.43,27.15C91.397,27.15 91.37,27.123 91.37,27.09L89.16,27.09C89.193,27.09 89.22,27.117 89.22,27.15C89.452,27.212 89.663,27.337 89.83,27.51C90.01,27.76 90.19,28 90.31,28.18C90.55,28.55 90.86,28.91 91.1,29.27C91.342,29.59 91.566,29.924 91.77,30.27C91.89,30.45 91.89,30.52 91.77,30.64C91.65,30.76 91.46,30.94 91.34,31.12C90.98,31.55 90.55,32.03 90.19,32.46C89.95,32.822 89.599,33.095 89.19,33.24L90.58,33.24C90.71,33.24 90.77,33.24 90.77,33.18L90.71,33.12C90.71,33.12 90.64,33.12 90.64,33.06C90.64,33 90.52,32.88 90.46,32.82C90.4,32.76 90.46,32.7 90.58,32.58L90.95,32.15C91.31,31.73 91.68,31.24 92.1,30.82C92.128,30.782 92.173,30.76 92.22,30.76C92.267,30.76 92.312,30.782 92.34,30.82L92.34,30.88L92.4,30.94C92.65,31.3 92.95,31.67 93.19,32.03L93.62,32.64C93.668,32.71 93.689,32.795 93.68,32.88C93.68,32.94 93.62,33 93.49,33.06L93.49,33.06C93.45,33.1 93.41,33.14 93.37,33.18L93.43,33.24C93.13,33.3 93.13,33.3 93.19,33.3M67.19,33.3L68.89,33.3L68.89,33.24C68.89,33.207 68.863,33.18 68.83,33.18C68.651,33.093 68.552,32.895 68.59,32.7L68.59,30.27C68.59,30.21 68.59,30.15 68.65,30.15C68.71,30.15 68.71,30.09 68.83,30.09L68.95,30.09C69.07,30.09 69.19,30.15 69.31,30.15C69.548,30.218 69.793,30.259 70.04,30.27C70.317,30.335 70.609,30.269 70.83,30.09L71.19,29.73L71.32,29.61L71.32,29.55L71.13,29.55C71.064,29.542 70.998,29.564 70.95,29.61C70.83,29.61 70.71,29.67 70.53,29.67C70.35,29.67 70.16,29.61 70.04,29.61C69.92,29.61 69.8,29.55 69.68,29.55C69.345,29.474 68.994,29.59 68.77,29.85C68.77,29.91 68.71,29.91 68.65,29.91L68.53,29.91L68.53,27.67C68.522,27.601 68.543,27.532 68.59,27.48C68.638,27.434 68.704,27.412 68.77,27.42L70.41,27.42C70.634,27.431 70.856,27.471 71.07,27.54C71.431,27.671 71.747,27.904 71.98,28.21C72.04,28.33 72.16,28.33 72.29,28.33L72.41,28.33L72.41,28.27L72.22,27.97C72.041,27.653 71.841,27.349 71.62,27.06C71.562,26.986 71.474,26.942 71.38,26.94L67.09,26.94L67.09,27C67.289,27.104 67.41,27.315 67.4,27.54L67.4,32.46C67.46,32.88 67.4,33.12 67.15,33.3M117.9,33.3L119.47,33.3C119.47,33.267 119.443,33.24 119.41,33.24C119.242,33.142 119.148,32.953 119.17,32.76L119.17,27.76C119.17,27.57 119.23,27.51 119.41,27.51L119.84,27.51C120.088,27.54 120.33,27.604 120.56,27.7C120.907,27.822 121.206,28.054 121.41,28.36C121.53,28.54 121.66,28.48 121.84,28.48L121.9,28.48C121.84,28.42 121.78,28.3 121.72,28.24L121.6,28C121.41,27.7 121.23,27.45 121.05,27.15C120.99,27.09 120.93,27.03 120.87,27.03L116.56,27.03C116.494,27.022 116.428,27.044 116.38,27.09C116.2,27.39 115.96,27.76 115.77,28.09L115.59,28.33L115.59,28.39L115.77,28.39C115.9,28.39 116.02,28.39 116.08,28.27L116.32,28.03C116.668,27.698 117.113,27.484 117.59,27.42L118.2,27.42C118.38,27.42 118.38,27.48 118.38,27.67L118.38,32.39C118.38,32.7 118.38,33 118.08,33.18L118.14,33.18C117.84,33.3 117.84,33.3 117.9,33.3ZM86.25,33.3C86.775,33.36 87.305,33.36 87.83,33.3L87.89,33.3C87.89,33.267 87.863,33.24 87.83,33.24C87.656,33.147 87.557,32.956 87.58,32.76L87.58,27.67C87.553,27.487 87.657,27.308 87.83,27.24L87.89,27.18L86.25,27.18L86.31,27.24L86.31,27.3C86.476,27.374 86.575,27.55 86.55,27.73L86.55,32.82C86.533,33.019 86.421,33.198 86.25,33.3" style="fill-rule:nonzero;"/>
    </g>
    <g>
        <path d="M29,16.81C29.017,16.808 29.033,16.807 29.05,16.807C29.253,16.807 29.42,16.974 29.42,17.177C29.42,17.178 29.42,17.179 29.42,17.18C29.42,17.42 29.3,17.6 29.06,17.6C28.82,17.6 28.63,17.48 28.63,17.24C28.624,17.213 28.62,17.186 28.62,17.159C28.62,16.967 28.778,16.809 28.97,16.809C28.98,16.809 28.99,16.809 29,16.81M26.82,20.15C26.908,20.39 27.137,20.551 27.393,20.551C27.705,20.551 27.97,20.311 28,20C27.971,19.688 27.706,19.447 27.393,19.447C27.372,19.447 27.351,19.448 27.33,19.45C27.325,19.45 27.319,19.45 27.314,19.45C27.018,19.45 26.774,19.694 26.774,19.99C26.774,20.034 26.779,20.077 26.79,20.12M25.39,23.57C25.417,23.983 25.765,24.308 26.178,24.308C26.612,24.308 26.968,23.951 26.968,23.518C26.968,23.084 26.612,22.728 26.178,22.728C26.159,22.728 26.139,22.729 26.12,22.73C25.714,22.738 25.385,23.074 25.385,23.48C25.385,23.51 25.386,23.54 25.39,23.57" style="fill-rule:nonzero;"/>
    </g>
    <path d="M77.1,11.78C74.34,12.728 71.816,14.26 69.7,16.27C66.542,19.214 63.66,22.441 61.09,25.91L59.21,28.33L59.09,28.09C58.97,27.85 58.91,27.67 58.79,27.48L58.18,26.21C58.023,25.899 58.001,25.537 58.12,25.21C58.337,24.931 58.677,24.774 59.03,24.79L59.45,24.79L59.57,24.6C59.7,24.42 59.76,24.24 59.88,24.06L59.94,24L54.42,24L54.24,24.12C54.126,24.316 54.026,24.52 53.94,24.73L53.94,24.79L54.94,24.79C55,24.79 55.06,24.79 55.06,24.85L55.12,24.85C55.588,25.014 55.956,25.382 56.12,25.85L56.24,26.09C56.42,26.51 56.6,26.88 56.79,27.3C56.904,27.517 57.004,27.741 57.09,27.97C57.09,28.03 57.15,28.09 57.15,28.15L58,30L56.79,31.58C56.72,31.64 56.72,31.64 56.72,31.7C53.865,35.582 50.705,39.231 47.27,42.61C45.443,44.451 43.324,45.978 41,47.13C39.619,47.788 38.109,48.129 36.58,48.13C34.391,48.115 32.288,47.267 30.7,45.76C30.818,45.959 30.959,46.143 31.12,46.31C32.802,48.107 35.149,49.138 37.61,49.16C38.281,49.159 38.95,49.099 39.61,48.98C42.216,48.346 44.643,47.121 46.7,45.4C50.136,42.599 53.231,39.404 55.92,35.88L59,32L59.12,32.3C59.232,32.518 59.332,32.741 59.42,32.97L59.94,34C60,34.12 60.06,34.18 60.06,34.3L60.18,34.61C60.253,34.852 60.232,35.113 60.12,35.34C59.902,35.618 59.563,35.774 59.21,35.76L58.79,35.76L58.66,35.94C58.548,36.137 58.448,36.341 58.36,36.55L58.3,36.61L63.82,36.61L63.94,36.43C64.06,36.24 64.12,36.06 64.24,35.82L64.24,35.76L63.15,35.76C62.69,35.509 62.335,35.101 62.15,34.61L62.15,34.55C61.79,33.76 61.42,32.97 61.15,32.3L60.15,30.24L60.15,30.18L63.39,26L63.58,25.76C65.834,22.793 68.315,20.004 71,17.42C72.803,15.626 74.896,14.149 77.19,13.05C78.558,12.417 80.043,12.077 81.55,12.05C83.964,12.049 86.265,13.088 87.86,14.9C87.005,13.636 85.818,12.633 84.43,12C83.205,11.472 81.884,11.206 80.55,11.22C79.386,11.292 78.231,11.472 77.1,11.76" style="fill-rule:nonzero;"/>
    <g>
        <clipPath id="_clip1">
            <path d="M77.1,11.78C74.34,12.728 71.816,14.26 69.7,16.27C66.542,19.214 63.66,22.441 61.09,25.91L59.21,28.33L59.09,28.09C58.97,27.85 58.91,27.67 58.79,27.48L58.18,26.21C58.023,25.899 58.001,25.537 58.12,25.21C58.337,24.931 58.677,24.774 59.03,24.79L59.45,24.79L59.57,24.6C59.7,24.42 59.76,24.24 59.88,24.06L59.94,24L54.42,24L54.24,24.12C54.126,24.316 54.026,24.52 53.94,24.73L53.94,24.79L54.94,24.79C55,24.79 55.06,24.79 55.06,24.85L55.12,24.85C55.588,25.014 55.956,25.382 56.12,25.85L56.24,26.09C56.42,26.51 56.6,26.88 56.79,27.3C56.904,27.517 57.004,27.741 57.09,27.97C57.09,28.03 57.15,28.09 57.15,28.15L58,30L56.79,31.58C56.72,31.64 56.72,31.64 56.72,31.7C53.865,35.582 50.705,39.231 47.27,42.61C45.443,44.451 43.324,45.978 41,47.13C39.619,47.788 38.109,48.129 36.58,48.13C34.391,48.115 32.288,47.267 30.7,45.76C30.818,45.959 30.959,46.143 31.12,46.31C32.802,48.107 35.149,49.138 37.61,49.16C38.281,49.159 38.95,49.099 39.61,48.98C42.216,48.346 44.643,47.121 46.7,45.4C50.136,42.599 53.231,39.404 55.92,35.88L59,32L59.12,32.3C59.232,32.518 59.332,32.741 59.42,32.97L59.94,34C60,34.12 60.06,34.18 60.06,34.3L60.18,34.61C60.253,34.852 60.232,35.113 60.12,35.34C59.902,35.618 59.563,35.774 59.21,35.76L58.79,35.76L58.66,35.94C58.548,36.137 58.448,36.341 58.36,36.55L58.3,36.61L63.82,36.61L63.94,36.43C64.06,36.24 64.12,36.06 64.24,35.82L64.24,35.76L63.15,35.76C62.69,35.509 62.335,35.101 62.15,34.61L62.15,34.55C61.79,33.76 61.42,32.97 61.15,32.3L60.15,30.24L60.15,30.18L63.39,26L63.58,25.76C65.834,22.793 68.315,20.004 71,17.42C72.803,15.626 74.896,14.149 77.19,13.05C78.558,12.417 80.043,12.077 81.55,12.05C83.964,12.049 86.265,13.088 87.86,14.9C87.005,13.636 85.818,12.633 84.43,12C83.205,11.472 81.884,11.206 80.55,11.22C79.386,11.292 78.231,11.472 77.1,11.76"/>
        </clipPath>
        <g clip-path="url(#_clip1)">
            <rect x="30.66" y="11.3" width="57.17" height="37.83" style="fill-rule:nonzero;"/>
        </g>
    </g>
    <g>
        <path d="M89.1,16.75C88.86,16.75 88.67,16.87 88.67,17.12C88.668,17.137 88.667,17.153 88.667,17.17C88.667,17.373 88.834,17.54 89.037,17.54C89.038,17.54 89.039,17.54 89.04,17.54C89.28,17.54 89.46,17.42 89.46,17.18C89.46,16.94 89.34,16.81 89.1,16.75M90.68,19.42C90.637,19.409 90.593,19.404 90.548,19.404C90.246,19.404 89.998,19.652 89.998,19.954C89.998,19.969 89.999,19.985 90,20C90,20.003 90,20.007 90,20.01C90,20.345 90.275,20.62 90.61,20.62C90.903,20.62 91.157,20.409 91.21,20.12C91.201,19.802 90.979,19.526 90.67,19.45M91.88,22.79C91.85,22.786 91.82,22.785 91.79,22.785C91.373,22.785 91.03,23.128 91.03,23.545C91.03,23.928 91.319,24.255 91.7,24.3C91.74,24.307 91.781,24.31 91.822,24.31C92.203,24.31 92.524,24.011 92.55,23.63C92.581,23.22 92.286,22.851 91.88,22.79M28.88,43.79C29.12,43.79 29.3,43.67 29.3,43.43C29.3,43.19 29.18,43 28.94,43C28.7,43 28.51,43.12 28.51,43.37C28.524,43.577 28.677,43.75 28.88,43.79M27.3,41.12C27.33,41.125 27.36,41.127 27.391,41.127C27.697,41.127 27.953,40.885 27.97,40.58C27.977,40.544 27.98,40.507 27.98,40.47C27.98,40.136 27.705,39.86 27.37,39.86C27.039,39.86 26.766,40.129 26.76,40.46C26.757,40.484 26.756,40.508 26.756,40.532C26.756,40.838 26.994,41.096 27.3,41.12M26.03,37.79C26.049,37.791 26.068,37.792 26.088,37.792C26.521,37.792 26.878,37.435 26.878,37.002C26.878,36.569 26.521,36.212 26.088,36.212C25.678,36.212 25.332,36.531 25.3,36.94C25.291,37.366 25.608,37.734 26.03,37.79M89.44,43.37C89.424,43.154 89.236,42.989 89.02,43C88.803,43.021 88.638,43.212 88.65,43.43C88.65,43.67 88.9,43.79 89.08,43.79C89.082,43.79 89.083,43.79 89.085,43.79C89.283,43.79 89.445,43.628 89.445,43.43C89.445,43.41 89.443,43.39 89.44,43.37M91.2,40.46C91.172,40.147 90.907,39.904 90.592,39.904C90.258,39.904 89.982,40.179 89.982,40.514C89.982,40.848 90.258,41.124 90.592,41.124C90.615,41.124 90.638,41.123 90.66,41.12C90.968,41.048 91.19,40.776 91.2,40.46M92.54,36.94C92.488,36.524 92.106,36.223 91.69,36.27C91.302,36.314 91.006,36.645 91.006,37.035C91.006,37.458 91.353,37.805 91.776,37.805C92.198,37.805 92.546,37.458 92.546,37.035C92.546,37.003 92.544,36.972 92.54,36.94" style="fill-rule:nonzero;"/>
    </g>
</svg>
