<svg id="Ebene_1" data-name="Ebene 1" xmlns="http://www.w3.org/2000/svg" viewBox="0 0 128 60"><defs><style>.cls-1{fill-rule:evenodd;}</style></defs><path class="cls-1" d="M33.49,44.11a3,3,0,0,1,4.24.61,31.61,31.61,0,0,1,3.74-5.4A2,2,0,0,1,41.1,38c0-.43.07-9.7.07-12.64v-.74a1.46,1.46,0,0,1,.49-1c-.06,0-.25,0-.31-.06a29.51,29.51,0,0,1-4.05-1.85c-1.6,2.46-3.07,2.64-4.73,2.52a1.25,1.25,0,0,1,.68,1.23c0,1.17,0,9.33-.06,12a2,2,0,0,1-.68,1.66l2.89,1.35A16.47,16.47,0,0,1,33.49,44.11Zm2.4-18.6v-1l2.7,1.16L38.53,35l-1.6,2.77a.63.63,0,0,1-.49.3.54.54,0,0,1-.55-.55h0Zm2.82,16.57a3,3,0,0,0-3.25-.42l3.07-5.53V40a2.88,2.88,0,0,0,.55,1.59Z"/><path class="cls-1" d="M43.38,24.1c.49.18.49.86.49,1h0v.13h0c0,1.84-.06,9.39-.06,11.54,0,0,.06,1.65-.5,1.65h0s4.36,1.78,4.67,2.21c0,0,1.9-3.19,2.27-3.62l-.61-.18-.43.73a.63.63,0,0,1-.92.31l-1.48-.61c-.18-.13-.37-.13-.37-.56h0V35.39l3.14-5.09a11.72,11.72,0,0,1,1.78-2.21,56.71,56.71,0,0,1-3.07-6.38A7.49,7.49,0,0,1,43.38,24.1Zm3.06.06,2.21,4.48a1.44,1.44,0,0,1,.07,1.48l-2.34,4,.06-8.84h0Z"/><path class="cls-1" d="M76.52,24.28c.49.19.49.86.49,1h0v.12h0C77,27.29,77,34.84,77,37c0,0,.06,1.66-.49,1.66h0s4.36,1.78,4.67,2.21c0,0,1.9-3.19,2.27-3.62l-.62-.19-.43.74a.63.63,0,0,1-.92.31L80,37.48c-.18-.12-.37-.12-.37-.55h0V35.58l3.13-5.1a12.18,12.18,0,0,1,1.78-2.21,57.65,57.65,0,0,1-3.07-6.38A7.58,7.58,0,0,1,76.52,24.28Zm3.07,0,2.21,4.49a1.4,1.4,0,0,1,.06,1.47l-2.33,4,.06-8.84h0Z"/><path class="cls-1" d="M102.12,24.35c.49.18.49.85.49,1h0v.12h0c0,1.84-.06,9.39-.06,11.54,0,0,.06,1.66-.49,1.66h0s4.35,1.78,4.66,2.21c0,0,1.9-3.19,2.27-3.62l-.61-.19-.43.74a.63.63,0,0,1-.92.31l-1.47-.62c-.19-.12-.37-.12-.43-.55h0V35.64l3.13-5.09A11.72,11.72,0,0,1,110,28.34,56.74,56.74,0,0,1,107,22,6.94,6.94,0,0,1,102.12,24.35Zm3.07.06,2.21,4.42a1.44,1.44,0,0,1,.06,1.47l-2.33,4,.06-8.84h0Z"/><path class="cls-1" d="M16.31,28.15c.36,0,.3.37.3.37l-.06,15.71c-.06.43-.3.62-.55.19l-2.64-3.75a19.94,19.94,0,0,1-1.23-2.08c-.12-.31-.61-2.21.37-3a1.7,1.7,0,0,1,1.78-.31,9.41,9.41,0,0,1-.67-1.41A13.51,13.51,0,0,1,12,35.21c-3.07,2.33-1.11,6.14-.43,7.24s3.13,5.1,3.13,5.1c.18-.25,1.54-1.9,1.9-2.33,3-3,2.58-4.61,2.58-5.77s.06-18.36.06-18.36c0-2.76,1.41-3.8,1.41-3.8l-.43-.37c-1.22,1-3.68.86-3.68.86H11.83a5.17,5.17,0,0,0-.07-1.41,15,15,0,0,1-1.65,0,65.82,65.82,0,0,1-.06,9.94,23.64,23.64,0,0,0,1.53-5.71h3.07c2,0,4.85-2.58,4.85-2.58-.31,1.11-3.5,3.32-3.68,3.44,0,0,.79,0,.79,1v3.87c-.55,0-2-.06-2-.06a32.9,32.9,0,0,1-1.17,3.25A3.84,3.84,0,0,1,16.31,28.15Z"/><path class="cls-1" d="M24.9,16.55h1.84a12.44,12.44,0,0,1-3,3.93A10,10,0,0,0,24.9,16.55Z"/><path class="cls-1" d="M28.15,16.55H30a12.52,12.52,0,0,1-3,3.93A12.91,12.91,0,0,0,28.15,16.55Z"/><path d="M56.82,37.6c-.19.37-.49.62-.92.43l-.62-.24a.69.69,0,0,1-.36-.68h0L55,28l1-2.15L57.31,28l-.8,1.59.43.56c.25-.74,2.27-4.05,2.27-4.05L57,21.83l-.06-.06h0v.06L55,26.31V23.55l-2.27-1.72h-.06c-.37.55-1.78,2.82-1.78,2.82,1.22,0,1.47.62,1.47,1,0,2.89-.06,10.19-.06,11.61,0,0,.06,1.65-.49,1.65,0,0,3.5,1.41,3.74,1.84,0,0,1.72-2.88,2.09-3.31l-.62-.18Z"/><path d="M115.56,37.85a.7.7,0,0,1-.92.43L114,38a.66.66,0,0,1-.37-.67h0l.06-9.15,1-2.15,1.35,2.21-.8,1.6.43.55c.25-.73,2.27-4.05,2.27-4.05l-2.21-4.3-.06-.06h0v.06l-1.9,4.49V23.79l-2.27-1.72h-.06c-.31.56-1.72,2.83-1.72,2.83,1.23,0,1.47.61,1.47,1,0,2.89-.06,10.19-.06,11.6,0,0,.06,1.66-.49,1.66,0,0,3.5,1.41,3.74,1.84,0,0,1.72-2.88,2.09-3.31l-.61-.19Z"/><path d="M74.56,38.16,74.19,38c-.18-.06-.25-.18-.25-.49V37h0v-.74c0-2.33.07-10.19.07-10.19V23.85l-3.07-2-2.09,4.85V23.85l-3.07-2L63.69,26.8V23.42l-2.21-1.59L59.7,24.65c1.11,0,1.35.62,1.35,1.11S61,37.48,61,37.48L59.7,38.83a19.21,19.21,0,0,1,2.21,1.78L64,38.46a.81.81,0,0,1-.43-.79l.06-9.09,1.78-4.11.49.31a.57.57,0,0,1,.31.55V36.5h0v1.17c0,.24.06,1.28-.37,1.71l3,1.35,1.53-2.63a1.14,1.14,0,0,1-.86.06L69.09,38c-.18-.06-.3-.18-.24-.49V37h0V28.64l1.78-4.11.49.31a.45.45,0,0,1,.25.55v.86c0,2.15,0,8.28-.07,10.25h0v1.17c0,.24.07,1.28-.36,1.71l2.94,1.35,1.54-2.63A1.14,1.14,0,0,1,74.56,38.16Z"/><path class="cls-1" d="M88.92,38.22,88.55,38c-.18-.06-.24-.18-.24-.49v-.49h0c0-2,.06-11,.06-12.09,0,0-.06-1.66.49-1.66,0,0-1.72-.67-3.07-1.29l-1.23,2.52a1,1,0,0,1,1.23.92s-.06,8.66-.06,11.66h0v.68c0,.24.06,1.29-.37,1.72l3,1.35,1.53-2.64C89.78,38.16,89.35,38.4,88.92,38.22Z"/><path d="M100,38.22,99.66,38c-.18-.06-.24-.18-.24-.49v-.49s0-10.86.06-12v-.37h1l1.41-2.27H99.36V17.16h0a.06.06,0,0,0-.07-.06h-.06A28,28,0,0,1,95,24.59h0v.06h1.84c0,1.66-.06,9.52-.06,12.34h0v.68c0,.24.06,1.28-.37,1.71l3,1.35,1.53-2.63A.74.74,0,0,1,100,38.22Z"/><path class="cls-1" d="M93.59,19.93h0l2,1s2.21-3.56,1.9-3.07-1.1.25-1.41.06L94.38,16.8C92.79,20.23,90,20.17,90,20.17A1.74,1.74,0,0,1,91,21.64v5C91,28.34,91,44.17,91,44.17S91.62,41,93.52,41l.07-14.73V19.93Z"/><path d="M30.61,38l-.37-.18c-.18-.06-.25-.19-.25-.49v-.49h0v-.74c0-1.78.07-9.82.07-10.87a1.58,1.58,0,0,1,.86-1.47,20.39,20.39,0,0,1-4.73-1.9c-1,2.09-2.46,2.33-4.3,2.27,0,0,.06,2.39,3.81,2.95h0a6.38,6.38,0,0,1-4.05,1.59,1.44,1.44,0,0,1,.43,1.05V38a2,2,0,0,1-.31,1.29h0v.06h.12l2.21,1,.49.25s.43-.67.62-.92a32.48,32.48,0,0,1,2.21-3.38v1.23c0,.25.06,1.29-.37,1.72L30,40.55l1.54-2.64C31.47,37.91,31,38.16,30.61,38Zm-3.25-3.31a9.29,9.29,0,0,1-1.54,2.51c-.61.68-1.17.74-1.17-.12l.07-8.53a9.12,9.12,0,0,0,2.7-2.39ZM26.68,26h0a.52.52,0,0,1-.37.19h-.12a2.18,2.18,0,0,1-2-1.91v-.06a.13.13,0,0,1,.13-.12,15.52,15.52,0,0,0,3.13,1A5.69,5.69,0,0,1,26.68,26Z"/><path class="cls-1" d="M88.43,16.86H86.34l-1.16,3.93v.06a.16.16,0,0,0,.18.18c.06,0,.12-.06.18-.12Z"/></svg>