<svg id="Ebene_1" data-name="Ebene 1" xmlns="http://www.w3.org/2000/svg" viewBox="0 0 128 60"><path d="M89.21,32.41A9.13,9.13,0,0,1,89,31.5a10.3,10.3,0,0,0-.4-1.18c-.16-.44-.32-.95-.55-1.47s-.52-1.06-.79-1.7-.68-1.18-1-1.86S85.34,24,84.9,23.36c-.27-.32-.51-.64-.79-1a12.44,12.44,0,0,0-.83-1,16.34,16.34,0,0,0-2-1.9,24.42,24.42,0,0,0-4.86-3.4c-.36-.2-.75-.4-1.15-.6a12.55,12.55,0,0,1,.63,1.78,25.43,25.43,0,0,1,4.63,3,25.68,25.68,0,0,1,3.64,3.56c.48.63,1,1.23,1.39,1.82s.79,1.19,1.14,1.74.6,1.11.87,1.58.48,1,.67,1.39a17,17,0,0,1,.8,2,4.78,4.78,0,0,0,.27.71A1.69,1.69,0,0,0,89.21,32.41Z"/><path d="M52.63,15.52c-.36.16-.71.36-1,.52s-.91.51-1.34.75a13.87,13.87,0,0,0-1.27.83c-.79.59-1.58,1.15-2.29,1.78a25.16,25.16,0,0,0-3.64,3.88c-.48.67-.91,1.3-1.35,1.93s-.71,1.27-1,1.86-.55,1.15-.79,1.7-.39,1-.55,1.47a18.14,18.14,0,0,0-.63,2.09c-.12.48-.2.76-.2.76s.08-.24.28-.72a16.48,16.48,0,0,1,.83-2A12.45,12.45,0,0,1,40.29,29c.28-.47.55-1,.87-1.58l1.19-1.78c.43-.59.91-1.19,1.38-1.82a28.42,28.42,0,0,1,3.68-3.56,19,19,0,0,1,2.25-1.62c.4-.28.83-.48,1.23-.75a9,9,0,0,1,1.11-.6A12.05,12.05,0,0,1,52.63,15.52Z"/><path d="M24.51,35.18c.55,0,1.14-.12,1.74-.12,2,0,4.11.91,4.11,3.21,0,2.09-1.66,3.28-3.52,3.83l3.28,4.39a10.11,10.11,0,0,0,3.17,2.93h-2.1A4.09,4.09,0,0,1,28.78,49a5.15,5.15,0,0,1-1.58-1.54L25,44.63a7.26,7.26,0,0,0-.79-1.14c-.2-.2-.43-.36-.63-.56,0,1.39,0,2.77,0,4.16,0,.19,0,.43,0,.67a6.46,6.46,0,0,0,.31,1.7H20a8.7,8.7,0,0,0,.32-2.69V38.11a7.56,7.56,0,0,0-.36-2.85,43.94,43.94,0,0,0,4.59-.08m-.91,6.57a1.2,1.2,0,0,0,.39,0,3.06,3.06,0,0,0,3.17-3,2.19,2.19,0,0,0-2.41-2.41c-.36,0-.76,0-1.15.08Z"/><path d="M33.53,46.69V37.12a5.75,5.75,0,0,0-.28-1.82h3.84a11.94,11.94,0,0,0-.24,2.1v4h5.3v-4a9.68,9.68,0,0,0-.24-2.14h3.84a7.46,7.46,0,0,0-.28,2.49v9.06a10,10,0,0,0,.32,2.65h-4a7.3,7.3,0,0,0,.36-1.86V42.74H36.81v3.67a9.22,9.22,0,0,0,.35,3.09H33.21a10,10,0,0,0,.32-2.81"/><path d="M54.88,35.1a6.87,6.87,0,0,1,7.24,7.2,7.26,7.26,0,0,1-7.55,7.44,7.2,7.2,0,0,1-7.2-7.2c0-4.47,3-7.44,7.51-7.44M51,42.34c0,2.33.79,6.17,3.79,6.17s3.64-3.44,3.64-5.77-.67-6.41-3.71-6.41S51,40,51,42.34"/><path d="M63.94,46.81v-8.7a11.17,11.17,0,0,0-.28-2.81c1.35,0,2.69,0,4,0,.87-.08,1.78-.16,2.65-.16,4.23,0,6.6,2.77,6.6,6.88,0,2.93-1.14,5.46-3.87,6.77a7.91,7.91,0,0,1-3,.71c-.83,0-1.7,0-2.53,0h-4a7,7,0,0,0,.36-2.69m3.32.28c0,1,.4,1.3,1.39,1.3,3.48,0,4.74-3.24,4.74-6.25,0-1.82-.47-3.91-2-5.1a4.42,4.42,0,0,0-2.81-.79c-.44,0-.87,0-1.31.08V47.09Z"/><path d="M78.85,46.69v-9a6.38,6.38,0,0,0-.35-2.41h4a6.89,6.89,0,0,0-.32,2.41v9a9.64,9.64,0,0,0,.32,2.81h-4a7.55,7.55,0,0,0,.35-2.81"/><path d="M87.91,35.3a12.34,12.34,0,0,0-.2,2.1v7.83a6.7,6.7,0,0,0,0,.91A2.19,2.19,0,0,0,90.2,48a2.76,2.76,0,0,0,3-3.21V37.24A16,16,0,0,0,93,35.3h3.76a13.9,13.9,0,0,0-.24,3.16v7.95c0,.16,0,.36,0,.52a7.67,7.67,0,0,0,.24,2.53h-3.6V48.08a6.23,6.23,0,0,1-4.55,1.66c-2,0-4-.79-4.19-3.05V38.46a14.08,14.08,0,0,0-.24-3.16Z"/><path d="M98.15,46.69a6.56,6.56,0,0,0,4.08,1.74,2.25,2.25,0,0,0,2.45-2.1,1.9,1.9,0,0,0-.83-1.58c-.6-.47-1.7-1.07-2.37-1.5-1.67-1-3.33-2-3.33-4.23,0-2.85,2.65-4,5.14-4a14.47,14.47,0,0,1,2.61.28,7.32,7.32,0,0,0,1.35.2l.2,2.05a6.71,6.71,0,0,0-3.68-1.46,2,2,0,0,0-2.26,1.94c0,3.12,6.57,3,6.57,7.2,0,3.12-3.2,4.47-5.89,4.47a10.31,10.31,0,0,1-4-1Z"/><path d="M62.12,26.76c0-.12,0-.24-.08-.36H55.56a1.69,1.69,0,0,0,.27.36ZM54.76,25a4.94,4.94,0,0,0,.32.59h6.8a3.92,3.92,0,0,0-.15-.59Zm3.84,4.23c.16.08.32.2.48.28h3.44a.68.68,0,0,0,0-.28Zm-4.11-4.91h7.08c-.08-.27-.2-.55-.28-.83H54.21a2.8,2.8,0,0,0,.28.83M54,23h7c-.15-.36-.31-.67-.47-1H53.82c.07.32.11.67.19,1M73.24,25H66c0,.19-.12.39-.16.59H73c.08-.2.2-.44.28-.59M69.4,29.25H65.29a.68.68,0,0,1,0,.28h3.67a3,3,0,0,0,.48-.28m3-2.89H65.68c0,.12,0,.24-.08.36h6.53a.78.78,0,0,0,.27-.36M60.34,21.54a12.9,12.9,0,0,0-.79-1.23H53.74v.24a8.28,8.28,0,0,0,0,1ZM57,28.06h5.34c0-.12,0-.2,0-.31H56.7l0,0,.28.27m17.24-7.51v-.24H68.21a12.6,12.6,0,0,0-.79,1.23h6.8c0-.32,0-.68,0-1m-.47,3H66.47c-.08.28-.2.56-.27.83h7.31a4.75,4.75,0,0,0,.28-.83M65.4,28.06H71a2.34,2.34,0,0,0,.28-.27l0,0H65.44c0,.07,0,.19,0,.31m8.74-6h-7c-.15.32-.31.63-.47,1H74a9.92,9.92,0,0,0,.19-1"/><path d="M73.24,16.08a11.79,11.79,0,0,0-2-2.81,10.21,10.21,0,0,0-14.48,0A9.62,9.62,0,0,0,54.84,16c8.55,2,8.71,13.76,8.71,14.75h.83c-.08-.91-.28-12.3,8.86-14.67"/></svg>