<svg id="Ebene_1" data-name="Ebene 1" xmlns="http://www.w3.org/2000/svg" viewBox="0 0 128 60"><defs><style>.cls-1{fill-rule:evenodd;}</style></defs><g id="Page-1"><g id="lg-leitgedanke-burger-open"><g id="true-fruits_Wortmarke_pos" data-name="true-fruits Wortmarke pos"><path id="Fill-1" class="cls-1" d="M46.94,27c0,.52-.79-.28-1.22.15s.23-.43.21-1.05a3,3,0,0,0-.32-1.66c-.2-.43-.44-1,.39-1.09.39-.06.43.37.49.95.09.93.67-1.28,3.68-1.83,2-.37,4.53.42,6.55-.45,2.27-1-3.52,5.17-7.94,3.28-3-1.3-1.85,1.23-1.84,1.7"/><path id="Fill-3" class="cls-1" d="M9.72,26.23a2.6,2.6,0,0,1-.67-.92c-.13-.33-.26-1.7-.67-2a.83.83,0,0,0-.7-.31.93.93,0,0,0-.75.3c-.43.32-.35,1.1-.43,1.63-.06.34.07.69-.38,1.16a4.8,4.8,0,0,1-1.57,1c-.36.32-.49.31-.49.68a.9.9,0,0,0,.36.69c.24.22,1.07.34,1.37.62a2,2,0,0,1,.6,1,5.25,5.25,0,0,1,.16,1.85c0,.37-.19,3.71-.19,3.71a11.83,11.83,0,0,0,.16,2,4.87,4.87,0,0,0,.62,1.74,3.23,3.23,0,0,0,1.25,1.21,4.11,4.11,0,0,0,2,.45,3.41,3.41,0,0,0,1.16-.2.75.75,0,0,0,.55-.72.7.7,0,0,0-.2-.52c-.12-.14-2.83.33-3-4.08l0-3.53a3.77,3.77,0,0,1,.5-2.08,2.58,2.58,0,0,1,1-1.05,11.33,11.33,0,0,1,1.28-.43c.34-.17.54-.31.54-.6a.7.7,0,0,0-.17-.51,1.94,1.94,0,0,0-.45-.31,8.16,8.16,0,0,1-1.86-.71"/><path id="Fill-4" class="cls-1" d="M21.86,27.28a9.54,9.54,0,0,1-4.35.57c-.69-.14-.8-.35-1.25-.34-1.05,0-1.38,1.46-1.41,1.76s0,.58,0,.83v8.64a3.81,3.81,0,0,0,.07.75,2.76,2.76,0,0,0,.24.7,1.63,1.63,0,0,0,.41.52,1,1,0,0,0,.61.2.87.87,0,0,0,.56-.2,1.65,1.65,0,0,0,.39-.55,3,3,0,0,0,.24-.8,5.49,5.49,0,0,0,.07-.91l-.18-3.2c0-1.26-.48-3.83,1.06-4.84a5.11,5.11,0,0,1,1.88-.79c.64-.15,2.2-.52,2.57-.67a.87.87,0,0,0,.54-.91.69.69,0,0,0-.23-.61,1.11,1.11,0,0,0-1.18-.15"/><path id="Fill-5" class="cls-1" d="M70.37,19.9a.75.75,0,0,0-.38-.73,3,3,0,0,0-1.27-.2,4.4,4.4,0,0,0-2,.45,3.71,3.71,0,0,0-1.39,1.06,4.62,4.62,0,0,0-.74,1.62,10.07,10.07,0,0,0-.2,2.39,3.48,3.48,0,0,1-.3,2.13c-.64.77-2.23,1.23-2.25,2.15a.93.93,0,0,0,.37.77,10.61,10.61,0,0,1,1.19.71c.84.42,1,2.33,1,3.23l-.21,5.18a2.77,2.77,0,0,0,.34,1.46c.22.38.24.56.63.56a1,1,0,0,0,.93-.66,3.52,3.52,0,0,0,.31-1.51l-.23-5.43A3.55,3.55,0,0,1,67.61,30,10.37,10.37,0,0,1,69,29.44a.76.76,0,0,0,.54-.67c0-1.09-1.94-1-2.69-2a4.33,4.33,0,0,1,.9-5.7c1.24-.87,2.55-.4,2.58-1.15"/><path id="Fill-6" class="cls-1" d="M100.35,29.47a7.91,7.91,0,0,0,0-.8,3.9,3.9,0,0,0-.19-.85,2,2,0,0,0-.4-.68.85.85,0,0,0-.67-.28.74.74,0,0,0-.61.28,1.93,1.93,0,0,0-.37.68,3.89,3.89,0,0,0-.18.85,7.91,7.91,0,0,0,0,.8v8.9a6,6,0,0,0,0,.68,3,3,0,0,0,.18.74,1.69,1.69,0,0,0,.37.59.81.81,0,0,0,.61.25.89.89,0,0,0,.64-.24,1.58,1.58,0,0,0,.4-.57,3.67,3.67,0,0,0,.2-.74,4.74,4.74,0,0,0,.06-.71v-8.9Zm-1.3-6.83a1.11,1.11,0,0,0,.83-.32,1,1,0,0,0,.32-.72,1.06,1.06,0,0,0-1.15-1.07,1,1,0,0,0-.84.33,1.18,1.18,0,0,0-.28.74,1.08,1.08,0,0,0,.27.72,1,1,0,0,0,.85.32Z"/><path id="Fill-7" class="cls-1" d="M119,26.55a8.43,8.43,0,0,0-1.83.21,6,6,0,0,0-1.74.7,4,4,0,0,0-1.3,1.24,3.3,3.3,0,0,0-.5,1.83,3.18,3.18,0,0,0,.53,1.93,4.08,4.08,0,0,0,1.35,1.15,8.82,8.82,0,0,0,1.75.73A13.27,13.27,0,0,1,119,35a4.28,4.28,0,0,1,1.34.91,2.07,2.07,0,0,1,.54,1.51,2,2,0,0,1-.15.71,2.18,2.18,0,0,1-.47.72,2.84,2.84,0,0,1-.81.56,2.73,2.73,0,0,1-1.2.23,3.89,3.89,0,0,1-1.55-.29,3.24,3.24,0,0,0-1.19-.29,1.41,1.41,0,0,0-.59.12.5.5,0,0,0-.27.52.79.79,0,0,0,.37.64,3.41,3.41,0,0,0,.9.42A7.93,7.93,0,0,0,117,41a8.53,8.53,0,0,0,1.06.07,9.75,9.75,0,0,0,2.57-.3,6.47,6.47,0,0,0,1.83-.81,3.43,3.43,0,0,0,1.09-1.17,3,3,0,0,0,.35-1.36,3.92,3.92,0,0,0-.53-2.2,4.13,4.13,0,0,0-1.31-1.29,7.33,7.33,0,0,0-1.71-.75,13.62,13.62,0,0,1-1.71-.61,4.07,4.07,0,0,1-1.31-.85,2,2,0,0,1-.53-1.5,1.42,1.42,0,0,1,.26-.9,2.11,2.11,0,0,1,.64-.55,3.1,3.1,0,0,1,.72-.29,2.83,2.83,0,0,1,.53-.08,4.18,4.18,0,0,1,1,.1,4,4,0,0,0,.9.1,2,2,0,0,0,.76-.13.53.53,0,0,0,.33-.54.74.74,0,0,0-.34-.59,3.57,3.57,0,0,0-.83-.42,6.67,6.67,0,0,0-1-.26,4.94,4.94,0,0,0-.84-.08"/><path id="Fill-8" class="cls-1" d="M42.59,31A1.75,1.75,0,0,0,43,32.16a2.55,2.55,0,0,0,1,.73,4.36,4.36,0,0,0,1.21.36,7.88,7.88,0,0,0,1.22.11,6.77,6.77,0,0,0,1.37-.14,3.74,3.74,0,0,0,1.14-.4,2.14,2.14,0,0,0,.77-.72,1.88,1.88,0,0,0,.29-1.05,2.31,2.31,0,0,0-.36-1.28,3.39,3.39,0,0,0-.91-.94,4,4,0,0,0-1.24-.6A4.9,4.9,0,0,0,46,28a3.58,3.58,0,0,0-1.31.24,3.82,3.82,0,0,0-1.09.66,3.54,3.54,0,0,0-.74.94A2.39,2.39,0,0,0,42.59,31Zm10.17,1c-.16,2.54-3,2.37-3.91,2.47a20.34,20.34,0,0,1-3.91-.19c-1-.13-3.31-1.09-3.49-.84-.79,1.18.29,4,2.51,5.21a4.53,4.53,0,0,0,1.23.53,6.06,6.06,0,0,0,4.64-.55,3.4,3.4,0,0,1,1-.34c.72,0,1.08.75.44,1.33a7.17,7.17,0,0,1-2.69,1.16A8.51,8.51,0,0,1,46.6,41a7.48,7.48,0,0,1-2.76-.53A8.13,8.13,0,0,1,41.46,39a7.13,7.13,0,0,1-1.66-2.13,5.66,5.66,0,0,1-.63-2.62,8.12,8.12,0,0,1,.57-3.15,6.12,6.12,0,0,1,1.62-2.31,7,7,0,0,1,2.51-1.43,7.52,7.52,0,0,1,3-.48,7,7,0,0,1,3.57,1.24A5.83,5.83,0,0,1,52.76,32Z"/><path id="Fill-9" class="cls-1" d="M25.64,27.22a1,1,0,0,0-.86.48,2.56,2.56,0,0,0-.35,1.49l.29,6.51c.12,2.49,1.25,5,3.79,5.3a26.41,26.41,0,0,0,4-.37,11,11,0,0,1,1.82-.17c.78,0,1.49.34,1.8.34.55,0,1.37-.35,1.25-.91a16,16,0,0,1-.23-3.21l.23-6.48c0-.4,0-.79,0-1.16a4.12,4.12,0,0,0-.18-.95,1.5,1.5,0,0,0-.38-.64,1,1,0,0,0-.69-.23.9.9,0,0,0-.67.25,1.65,1.65,0,0,0-.39.63,3.83,3.83,0,0,0-.21.84,6.35,6.35,0,0,0-.06.83v4.28a12.9,12.9,0,0,1-.34,3.47c-.58,1.34-1.51,1.77-3.17,1.79-2.4,0-3.17-1.17-3.49-1.77a6.47,6.47,0,0,1-.68-2.21,21.49,21.49,0,0,1-.19-3.11v-2.8a3.59,3.59,0,0,0-.31-1.62,1,1,0,0,0-.93-.58"/><path id="Fill-10" class="cls-1" d="M79,27.31a9.52,9.52,0,0,1-4.34.57c-.69-.14-.8-.35-1.26-.34-1,0-1.37,1.47-1.4,1.76s0,.58,0,.83v8.64a4,4,0,0,0,.07.76,2.56,2.56,0,0,0,.24.69,1.5,1.5,0,0,0,.41.52,1,1,0,0,0,.6.2.83.83,0,0,0,.56-.2,1.66,1.66,0,0,0,.4-.55,3,3,0,0,0,.24-.8,5.41,5.41,0,0,0,.07-.91l-.18-3.2c0-1.25-.48-3.83,1.06-4.84a5.27,5.27,0,0,1,1.88-.78c.64-.16,2.2-.53,2.56-.67a.88.88,0,0,0,.55-.91.68.68,0,0,0-.24-.62c-.21-.16-.46-.35-1.18-.15"/><path id="Fill-11" class="cls-1" d="M82.87,27.22a1,1,0,0,0-.86.48,2.56,2.56,0,0,0-.35,1.49L82,35.7c.12,2.49,1.25,5,3.79,5.3a26.41,26.41,0,0,0,4-.37,11,11,0,0,1,1.82-.17c.78,0,1.49.34,1.8.34.55,0,1.37-.35,1.25-.91a16,16,0,0,1-.23-3.21l.23-6.48c0-.4,0-.79,0-1.16a4.12,4.12,0,0,0-.18-.95,1.5,1.5,0,0,0-.38-.64,1,1,0,0,0-.69-.23.9.9,0,0,0-.67.25,1.65,1.65,0,0,0-.39.63,3.83,3.83,0,0,0-.21.84,6.35,6.35,0,0,0-.06.83v4.28a12.9,12.9,0,0,1-.34,3.47c-.58,1.34-1.51,1.77-3.17,1.79-2.4,0-3.17-1.17-3.49-1.77a6.47,6.47,0,0,1-.68-2.21,21.49,21.49,0,0,1-.19-3.11v-2.8a3.59,3.59,0,0,0-.31-1.62,1,1,0,0,0-.93-.58"/><path id="Fill-13" class="cls-1" d="M108.36,26.31a2.65,2.65,0,0,1-.58-1c-.13-.33-.26-1.7-.67-2a.83.83,0,0,0-.7-.31.93.93,0,0,0-.75.3c-.43.32-.35,1.1-.43,1.63-.06.34-.07,1.16-.41,1.51s-.91.36-1.54.62c-.36.32-.49.31-.49.68a.9.9,0,0,0,.36.69c.24.22,1.07.34,1.37.62a2,2,0,0,1,.6,1,5.25,5.25,0,0,1,.16,1.85c0,.37-.19,3.71-.19,3.71a11.83,11.83,0,0,0,.16,2,4.87,4.87,0,0,0,.62,1.74,3.23,3.23,0,0,0,1.25,1.21,4.11,4.11,0,0,0,2,.45,3.41,3.41,0,0,0,1.16-.2.75.75,0,0,0,.55-.72.74.74,0,0,0-.19-.52c-.13-.14-2.84.33-3-4.08l0-3.53a3.78,3.78,0,0,1,.49-2.09,2.92,2.92,0,0,1,1-1c.56-.29,1-.26,1.28-.43s.54-.31.54-.6a.7.7,0,0,0-.17-.51,2.29,2.29,0,0,0-.45-.32c-.2-.1-1.6-.27-2-.62"/></g></g></g></svg>